<?xml version="1.0" encoding="UTF-8" standalone="no"?>
<!DOCTYPE svg PUBLIC "-//W3C//DTD SVG 1.0//EN" "http://www.w3.org/TR/2001/PR-SVG-20010719/DTD/svg10.dtd">
<svg width="49cm" height="35cm" viewBox="-6 17 49 35">
  <rect style="fill: #ffffff" x="1.7175" y="24.8175" width="9.065" height="2.7825"/>
  <rect style="fill: none; fill-opacity:0; stroke-width: 0.1; stroke: #000000" x="1.7175" y="24.8175" width="9.065" height="2.7825"/>
  <rect style="fill: #ffffff" x="1.7175" y="23.8175" width="8.25" height="1"/>
  <rect style="fill: none; fill-opacity:0; stroke-width: 0.1; stroke: #000000" x="1.7175" y="23.8175" width="8.25" height="1"/>
  <text style="fill: #000000; font-size: 0.8 cm; length: 8.05 cm; font-family: monospace; font-style: normal; font-weight: normal" x="1.8175" y="24.3175">Gestion de asociaciones</text>
  <rect style="fill: #ffffff" x="1.5825" y="30.23" width="7.45" height="3.42"/>
  <rect style="fill: none; fill-opacity:0; stroke-width: 0.1; stroke: #000000" x="1.5825" y="30.23" width="7.45" height="3.42"/>
  <rect style="fill: #ffffff" x="1.5825" y="29.23" width="6.15" height="1"/>
  <rect style="fill: none; fill-opacity:0; stroke-width: 0.1; stroke: #000000" x="1.5825" y="29.23" width="6.15" height="1"/>
  <text style="fill: #000000; font-size: 0.8 cm; length: 5.95 cm; font-family: monospace; font-style: normal; font-weight: normal" x="1.6825" y="29.73">Gestion de socios</text>
  <rect style="fill: #ffffff" x="15.0825" y="49.38" width="8.2" height="2.745"/>
  <rect style="fill: none; fill-opacity:0; stroke-width: 0.1; stroke: #000000" x="15.0825" y="49.38" width="8.2" height="2.745"/>
  <rect style="fill: #ffffff" x="15.0825" y="48.38" width="7.2" height="1"/>
  <rect style="fill: none; fill-opacity:0; stroke-width: 0.1; stroke: #000000" x="15.0825" y="48.38" width="7.2" height="1"/>
  <text style="fill: #000000; font-size: 0.8 cm; length: 7 cm; font-family: monospace; font-style: normal; font-weight: normal" x="15.1825" y="48.88">Gestion de contactos</text>
  <rect style="fill: #ffffff" x="32.2825" y="30.5416" width="8.6" height="2.8834"/>
  <rect style="fill: none; fill-opacity:0; stroke-width: 0.1; stroke: #000000" x="32.2825" y="30.5416" width="8.6" height="2.8834"/>
  <rect style="fill: #ffffff" x="32.2825" y="29.5416" width="7.2" height="1"/>
  <rect style="fill: none; fill-opacity:0; stroke-width: 0.1; stroke: #000000" x="32.2825" y="29.5416" width="7.2" height="1"/>
  <text style="fill: #000000; font-size: 0.8 cm; length: 7 cm; font-family: monospace; font-style: normal; font-weight: normal" x="32.3825" y="30.0416">Gestion de directiva</text>
  <rect style="fill: #ffffff" x="12.9825" y="33.63" width="8.7" height="4.82"/>
  <rect style="fill: none; fill-opacity:0; stroke-width: 0.1; stroke: #000000" x="12.9825" y="33.63" width="8.7" height="4.82"/>
  <rect style="fill: #ffffff" x="12.9825" y="32.63" width="7.55" height="1"/>
  <rect style="fill: none; fill-opacity:0; stroke-width: 0.1; stroke: #000000" x="12.9825" y="32.63" width="7.55" height="1"/>
  <text style="fill: #000000; font-size: 0.8 cm; length: 7.35 cm; font-family: monospace; font-style: normal; font-weight: normal" x="13.0825" y="33.13">Gestion de decisiones</text>
  <rect style="fill: #ffffff" x="31.3175" y="25.9175" width="8.065" height="3.1075"/>
  <rect style="fill: none; fill-opacity:0; stroke-width: 0.1; stroke: #000000" x="31.3175" y="25.9175" width="8.065" height="3.1075"/>
  <rect style="fill: #ffffff" x="31.3175" y="24.9175" width="7.2" height="1"/>
  <rect style="fill: none; fill-opacity:0; stroke-width: 0.1; stroke: #000000" x="31.3175" y="24.9175" width="7.2" height="1"/>
  <text style="fill: #000000; font-size: 0.8 cm; length: 7 cm; font-family: monospace; font-style: normal; font-weight: normal" x="31.4175" y="25.4175">Gestion de proyectos</text>
  <rect style="fill: #ffffff" x="15.2325" y="43.4175" width="10" height="3.0325"/>
  <rect style="fill: none; fill-opacity:0; stroke-width: 0.1; stroke: #000000" x="15.2325" y="43.4175" width="10" height="3.0325"/>
  <rect style="fill: #ffffff" x="15.2325" y="42.4175" width="8.95" height="1"/>
  <rect style="fill: none; fill-opacity:0; stroke-width: 0.1; stroke: #000000" x="15.2325" y="42.4175" width="8.95" height="1"/>
  <text style="fill: #000000; font-size: 0.8 cm; length: 8.75 cm; font-family: monospace; font-style: normal; font-weight: normal" x="15.3325" y="42.9175">Calendario de actividades</text>
  <ellipse style="fill: #ffffff" cx="5.3325" cy="45.1946" rx="0.309783" ry="0.309783"/>
  <ellipse style="fill: none; fill-opacity:0; stroke-width: 0.1; stroke: #000000" cx="5.3325" cy="45.1946" rx="0.309783" ry="0.309783"/>
  <line style="fill: none; fill-opacity:0; stroke-width: 0.1; stroke: #000000" x1="4.09337" y1="45.8141" x2="6.57163" y2="45.8141"/>
  <line style="fill: none; fill-opacity:0; stroke-width: 0.1; stroke: #000000" x1="5.3325" y1="45.5043" x2="5.3325" y2="47.0533"/>
  <line style="fill: none; fill-opacity:0; stroke-width: 0.1; stroke: #000000" x1="5.3325" y1="47.0533" x2="4.09337" y2="48.4054"/>
  <line style="fill: none; fill-opacity:0; stroke-width: 0.1; stroke: #000000" x1="5.3325" y1="47.0533" x2="6.57163" y2="48.4054"/>
  <text style="fill: #000000; font-size: 0.8 cm; length: 1.5675 cm; font-family: sans; font-style: normal; font-weight: normal" x="4.54875" y="49.5675">Socio</text>
  <ellipse style="fill: #ffffff" cx="27.2825" cy="30.1675" rx="0.3" ry="0.3"/>
  <ellipse style="fill: none; fill-opacity:0; stroke-width: 0.1; stroke: #000000" cx="27.2825" cy="30.1675" rx="0.3" ry="0.3"/>
  <line style="fill: none; fill-opacity:0; stroke-width: 0.1; stroke: #000000" x1="26.0825" y1="30.7675" x2="28.4825" y2="30.7675"/>
  <line style="fill: none; fill-opacity:0; stroke-width: 0.1; stroke: #000000" x1="27.2825" y1="30.4675" x2="27.2825" y2="31.9675"/>
  <line style="fill: none; fill-opacity:0; stroke-width: 0.1; stroke: #000000" x1="27.2825" y1="31.9675" x2="26.0825" y2="33.2675"/>
  <line style="fill: none; fill-opacity:0; stroke-width: 0.1; stroke: #000000" x1="27.2825" y1="31.9675" x2="28.4825" y2="33.2675"/>
  <text style="fill: #000000; font-size: 0.8 cm; length: 2.9775 cm; font-family: sans; font-style: normal; font-weight: normal" x="25.7937" y="34.41">Secretario</text>
  <ellipse style="fill: #ffffff" cx="19.7325" cy="26.7175" rx="0.3" ry="0.3"/>
  <ellipse style="fill: none; fill-opacity:0; stroke-width: 0.1; stroke: #000000" cx="19.7325" cy="26.7175" rx="0.3" ry="0.3"/>
  <line style="fill: none; fill-opacity:0; stroke-width: 0.1; stroke: #000000" x1="18.5325" y1="27.3175" x2="20.9325" y2="27.3175"/>
  <line style="fill: none; fill-opacity:0; stroke-width: 0.1; stroke: #000000" x1="19.7325" y1="27.0175" x2="19.7325" y2="28.5175"/>
  <line style="fill: none; fill-opacity:0; stroke-width: 0.1; stroke: #000000" x1="19.7325" y1="28.5175" x2="18.5325" y2="29.8175"/>
  <line style="fill: none; fill-opacity:0; stroke-width: 0.1; stroke: #000000" x1="19.7325" y1="28.5175" x2="20.9325" y2="29.8175"/>
  <text style="fill: #000000; font-size: 0.8 cm; length: 8.985 cm; font-family: sans; font-style: normal; font-weight: normal" x="15.24" y="30.96">Administrador de la asociación</text>
  <ellipse style="fill: #ffffff" cx="-3.0675" cy="24.4175" rx="0.3" ry="0.3"/>
  <ellipse style="fill: none; fill-opacity:0; stroke-width: 0.1; stroke: #000000" cx="-3.0675" cy="24.4175" rx="0.3" ry="0.3"/>
  <line style="fill: none; fill-opacity:0; stroke-width: 0.1; stroke: #000000" x1="-4.2675" y1="25.0175" x2="-1.8675" y2="25.0175"/>
  <line style="fill: none; fill-opacity:0; stroke-width: 0.1; stroke: #000000" x1="-3.0675" y1="24.7175" x2="-3.0675" y2="26.2175"/>
  <line style="fill: none; fill-opacity:0; stroke-width: 0.1; stroke: #000000" x1="-3.0675" y1="26.2175" x2="-4.2675" y2="27.5175"/>
  <line style="fill: none; fill-opacity:0; stroke-width: 0.1; stroke: #000000" x1="-3.0675" y1="26.2175" x2="-1.8675" y2="27.5175"/>
  <text style="fill: #000000; font-size: 0.8 cm; length: 5.13 cm; font-family: sans; font-style: normal; font-weight: normal" x="-5.6325" y="28.66">Usuario anónimo </text>
  <ellipse style="fill: #ffffff" cx="19.8325" cy="19.9675" rx="0.3" ry="0.3"/>
  <ellipse style="fill: none; fill-opacity:0; stroke-width: 0.1; stroke: #000000" cx="19.8325" cy="19.9675" rx="0.3" ry="0.3"/>
  <line style="fill: none; fill-opacity:0; stroke-width: 0.1; stroke: #000000" x1="18.6325" y1="20.5675" x2="21.0325" y2="20.5675"/>
  <line style="fill: none; fill-opacity:0; stroke-width: 0.1; stroke: #000000" x1="19.8325" y1="20.2675" x2="19.8325" y2="21.7675"/>
  <line style="fill: none; fill-opacity:0; stroke-width: 0.1; stroke: #000000" x1="19.8325" y1="21.7675" x2="18.6325" y2="23.0675"/>
  <line style="fill: none; fill-opacity:0; stroke-width: 0.1; stroke: #000000" x1="19.8325" y1="21.7675" x2="21.0325" y2="23.0675"/>
  <text style="fill: #000000; font-size: 0.8 cm; length: 9.5825 cm; font-family: sans; font-style: normal; font-weight: normal" x="15.0412" y="24.21">Administrador de la Herramienta</text>
  <rect style="fill: #ffffff" x="35.9325" y="39.5166" width="6.8" height="5.3334"/>
  <rect style="fill: none; fill-opacity:0; stroke-width: 0.1; stroke: #000000" x="35.9325" y="39.5166" width="6.8" height="5.3334"/>
  <rect style="fill: #ffffff" x="35.9325" y="38.5166" width="6.15" height="1"/>
  <rect style="fill: none; fill-opacity:0; stroke-width: 0.1; stroke: #000000" x="35.9325" y="38.5166" width="6.15" height="1"/>
  <text style="fill: #000000; font-size: 0.8 cm; length: 5.95 cm; font-family: monospace; font-style: normal; font-weight: normal" x="36.0325" y="39.0166">Gestion economica</text>
  <ellipse style="fill: #ffffff" cx="31.2325" cy="40.3675" rx="0.3" ry="0.3"/>
  <ellipse style="fill: none; fill-opacity:0; stroke-width: 0.1; stroke: #000000" cx="31.2325" cy="40.3675" rx="0.3" ry="0.3"/>
  <line style="fill: none; fill-opacity:0; stroke-width: 0.1; stroke: #000000" x1="30.0325" y1="40.9675" x2="32.4325" y2="40.9675"/>
  <line style="fill: none; fill-opacity:0; stroke-width: 0.1; stroke: #000000" x1="31.2325" y1="40.6675" x2="31.2325" y2="42.1675"/>
  <line style="fill: none; fill-opacity:0; stroke-width: 0.1; stroke: #000000" x1="31.2325" y1="42.1675" x2="30.0325" y2="43.4675"/>
  <line style="fill: none; fill-opacity:0; stroke-width: 0.1; stroke: #000000" x1="31.2325" y1="42.1675" x2="32.4325" y2="43.4675"/>
  <text style="fill: #000000; font-size: 0.8 cm; length: 2.6275 cm; font-family: sans; font-style: normal; font-weight: normal" x="29.9188" y="44.61">Tesorero </text>
  <polyline style="fill: none; fill-opacity:0; stroke-width: 0.1; stroke: #000000" points="6.63282,47.05 10.8325,47.05 10.8325,50.7525 14.8086,50.7525 "/>
  <polyline style="fill: none; fill-opacity:0; stroke-width: 0.1; stroke: #000000" points="14.4204,51.0025 14.9204,50.7525 14.4204,50.5025 "/>
  <polyline style="fill: none; fill-opacity:0; stroke-width: 0.1; stroke: #000000" points="27.2825,29.2675 27.2825,27.4713 31.0434,27.4713 "/>
  <polyline style="fill: none; fill-opacity:0; stroke-width: 0.1; stroke: #000000" points="30.6552,27.7213 31.1552,27.4713 30.6552,27.2213 "/>
  <polyline style="fill: none; fill-opacity:0; stroke-width: 0.1; stroke: #000000" points="5.3325,44.275 5.3325,38.7425 5.3075,38.7425 5.3075,33.9207 "/>
  <polyline style="fill: none; fill-opacity:0; stroke-width: 0.1; stroke: #000000" points="5.5575,34.3089 5.3075,33.8089 5.0575,34.3089 "/>
  <polyline style="fill: none; fill-opacity:0; stroke-width: 0.1; stroke: #000000" points="26.0325,31.9675 17.5577,31.9675 17.5577,31.94 9.30657,31.94 "/>
  <polyline style="fill: none; fill-opacity:0; stroke-width: 0.1; stroke: #000000" points="9.69476,31.69 9.19476,31.94 9.69476,32.19 "/>
  <polyline style="fill: none; fill-opacity:0; stroke-width: 0.1; stroke: #000000" points="4.0825,47.05 2.09,47.05 2.09,47.055 0.756327,47.055 "/>
  <polyline style="fill: none; fill-opacity:0; stroke-width: 0.1; stroke: #000000" points="1.14452,46.805 0.644523,47.055 1.14452,47.305 "/>
  <rect style="fill: #ffffff" x="-5.8175" y="45.055" width="6.3" height="4"/>
  <rect style="fill: none; fill-opacity:0; stroke-width: 0.1; stroke: #000000" x="-5.8175" y="45.055" width="6.3" height="4"/>
  <rect style="fill: #ffffff" x="-5.8175" y="44.055" width="5.1" height="1"/>
  <rect style="fill: none; fill-opacity:0; stroke-width: 0.1; stroke: #000000" x="-5.8175" y="44.055" width="5.1" height="1"/>
  <text style="fill: #000000; font-size: 0.8 cm; length: 4.9 cm; font-family: monospace; font-style: normal; font-weight: normal" x="-5.7175" y="44.555">Identificacion</text>
  <polyline style="fill: none; fill-opacity:0; stroke-width: 0.1; stroke: #000000" points="6.5825,47.05 10.8823,47.05 10.8823,44.9338 14.9586,44.9338 "/>
  <polyline style="fill: none; fill-opacity:0; stroke-width: 0.1; stroke: #000000" points="14.5704,45.1838 15.0704,44.9338 14.5704,44.6838 "/>
  <polyline style="fill: none; fill-opacity:0; stroke-width: 0.1; stroke: #000000" points="5.3325,44.2247 5.3325,41.3625 17.3325,41.3625 17.3325,38.7239 "/>
  <polyline style="fill: none; fill-opacity:0; stroke-width: 0.1; stroke: #000000" points="17.5825,39.1121 17.3325,38.6121 17.0825,39.1121 "/>
  <polyline style="fill: none; fill-opacity:0; stroke-width: 0.1; stroke: #000000" points="32.5328,42.1675 34.2074,42.1675 34.2074,42.1833 35.6585,42.1833 "/>
  <polyline style="fill: none; fill-opacity:0; stroke-width: 0.1; stroke: #000000" points="35.2703,42.4333 35.7703,42.1833 35.2703,41.9333 "/>
  <polyline style="fill: none; fill-opacity:0; stroke-width: 0.1; stroke: #000000" points="-3.0675,28.9175 -3.0675,31.94 1.30843,31.94 "/>
  <polyline style="fill: none; fill-opacity:0; stroke-width: 0.1; stroke: #000000" points="0.920237,32.19 1.42024,31.94 0.920237,31.69 "/>
  <polyline style="fill: none; fill-opacity:0; stroke-width: 0.1; stroke: #000000" points="-1.8175,26.2175 -0.05,26.2175 -0.05,26.2088 1.49389,26.2088 "/>
  <polyline style="fill: none; fill-opacity:0; stroke-width: 0.1; stroke: #000000" points="1.1057,26.4588 1.6057,26.2088 1.1057,25.9588 "/>
  <polyline style="fill: none; fill-opacity:0; stroke-width: 0.1; stroke: #000000" points="18.5825,21.7675 14.6825,21.7675 14.6825,26.2088 11.0061,26.2088 "/>
  <polyline style="fill: none; fill-opacity:0; stroke-width: 0.1; stroke: #000000" points="11.3943,25.9588 10.8943,26.2088 11.3943,26.4588 "/>
  <polyline style="fill: none; fill-opacity:0; stroke-width: 0.1; stroke: #000000" points="18.4825,28.5175 14.6576,28.5175 14.6576,26.2088 11.0564,26.2088 "/>
  <polyline style="fill: none; fill-opacity:0; stroke-width: 0.1; stroke: #000000" points="11.4446,25.9588 10.9446,26.2088 11.4446,26.4588 "/>
  <polyline style="fill: none; fill-opacity:0; stroke-width: 0.1; stroke: #000000" points="28.5325,31.9675 30.3824,31.9675 30.3824,31.9833 32.0086,31.9833 "/>
  <polyline style="fill: none; fill-opacity:0; stroke-width: 0.1; stroke: #000000" points="31.6204,32.2333 32.1204,31.9833 31.6204,31.7333 "/>
  <rect style="fill: #ffffff" x="27.6" y="20.105" width="10.15" height="3.32"/>
  <rect style="fill: none; fill-opacity:0; stroke-width: 0.1; stroke: #000000" x="27.6" y="20.105" width="10.15" height="3.32"/>
  <rect style="fill: #ffffff" x="27.6" y="19.105" width="8.95" height="1"/>
  <rect style="fill: none; fill-opacity:0; stroke-width: 0.1; stroke: #000000" x="27.6" y="19.105" width="8.95" height="1"/>
  <text style="fill: #000000; font-size: 0.8 cm; length: 8.75 cm; font-family: monospace; font-style: normal; font-weight: normal" x="27.7" y="19.605">Gestión de la herramienta</text>
  <polyline style="fill: none; fill-opacity:0; stroke-width: 0.1; stroke: #000000" points="21.0825,21.7675 24.3412,21.7675 24.3412,21.765 27.3764,21.765 "/>
  <polyline style="fill: none; fill-opacity:0; stroke-width: 0.1; stroke: #000000" points="26.9882,22.015 27.4882,21.765 26.9882,21.515 "/>
</svg>
