<?xml version="1.0" encoding="UTF-8" standalone="no"?>
<!DOCTYPE svg PUBLIC "-//W3C//DTD SVG 1.0//EN" "http://www.w3.org/TR/2001/PR-SVG-20010719/DTD/svg10.dtd">
<svg width="26cm" height="15cm" viewBox="0 0 26 15">
  <rect style="fill: #ffffff" x="11" y="4.1" width="3.475" height="1.8"/>
  <rect style="fill: none; fill-opacity:0; stroke-width: 0.1; stroke: #000000" x="11" y="4.1" width="3.475" height="1.8"/>
  <text style="fill: #000000; font-size: 0.8 cm; length: 2.475 cm; font-family: sans; font-style: normal; font-weight: normal" x="11.5" y="5.1425">:sistema</text>
  <line style="fill: none; fill-opacity:0; stroke-width: 0.05; stroke: #000000" x1="11.5" y1="5.2825" x2="13.975" y2="5.2825"/>
  <line style="fill: none; fill-opacity:0; stroke-width: 0.05; stroke-dasharray: 0.4; stroke: #000000" x1="5.0275" y1="5.87" x2="5.0275" y2="13.9"/>
  <rect style="fill: #ffffff" x="4.6775" y="7.325" width="0.7" height="3.6"/>
  <rect style="fill: none; fill-opacity:0; stroke-width: 0.1; stroke: #000000" x="4.6775" y="7.325" width="0.7" height="3.6"/>
  <line style="fill: none; fill-opacity:0; stroke-width: 0.12; stroke: #000000" x1="5.8275" y1="14.7" x2="4.2275" y2="13.1"/>
  <line style="fill: none; fill-opacity:0; stroke-width: 0.12; stroke: #000000" x1="5.8275" y1="13.1" x2="4.2275" y2="14.7"/>
  <line style="fill: none; fill-opacity:0; stroke-width: 0.05; stroke-dasharray: 0.4; stroke: #000000" x1="12.7375" y1="5.9" x2="12.7375" y2="13.8"/>
  <rect style="fill: #ffffff" x="12.3875" y="7.35" width="0.7" height="3.65"/>
  <rect style="fill: none; fill-opacity:0; stroke-width: 0.1; stroke: #000000" x="12.3875" y="7.35" width="0.7" height="3.65"/>
  <line style="fill: none; fill-opacity:0; stroke-width: 0.12; stroke: #000000" x1="13.5375" y1="14.6" x2="11.9375" y2="13"/>
  <line style="fill: none; fill-opacity:0; stroke-width: 0.12; stroke: #000000" x1="13.5375" y1="13" x2="11.9375" y2="14.6"/>
  <line style="fill: none; fill-opacity:0; stroke-width: 0.1; stroke: #000000" x1="11.5375" y1="7.34697" x2="5.3775" y2="7.325"/>
  <polygon style="fill: #000000" points="11.5366,7.59697 12.3375,7.34982 11.5384,7.09697 "/>
  <text style="fill: #000000; font-size: 0.8 cm; length: 4.98 cm; font-family: sans; font-style: normal; font-weight: normal" x="6.39255" y="7.8375">ListadoModulos()</text>
  <line style="fill: none; fill-opacity:0; stroke-width: 0.1; stroke: #000000" x1="13.0875" y1="7.35" x2="26.25" y2="7.35"/>
  <line style="fill: none; fill-opacity:0; stroke-width: 0.1; stroke: #000000" x1="26.25" y1="7.35" x2="26.25" y2="8.8"/>
  <line style="fill: none; fill-opacity:0; stroke-width: 0.1; stroke: #000000" x1="13.9375" y1="8.8" x2="26.25" y2="8.8"/>
  <polygon style="fill: #000000" points="13.9375,8.55 13.1375,8.8 13.9375,9.05 "/>
  <text style="fill: #000000; font-size: 0.8 cm; length: 12.965 cm; font-family: sans; font-style: normal; font-weight: normal" x="13.1863" y="8.575">listado:=generarListadoModulos(asociacion)</text>
  <line style="fill: none; fill-opacity:0; stroke-width: 0.1; stroke: #000000" x1="13.0875" y1="9.175" x2="23.15" y2="9.175"/>
  <line style="fill: none; fill-opacity:0; stroke-width: 0.1; stroke: #000000" x1="23.15" y1="9.175" x2="23.15" y2="10.5"/>
  <line style="fill: none; fill-opacity:0; stroke-width: 0.1; stroke: #000000" x1="13.9375" y1="10.5" x2="23.15" y2="10.5"/>
  <polygon style="fill: #000000" points="13.9375,10.25 13.1375,10.5 13.9375,10.75 "/>
  <text style="fill: #000000; font-size: 0.8 cm; length: 9.5675 cm; font-family: sans; font-style: normal; font-weight: normal" x="13.3349" y="10.3375">Listado:=ordenarListado(listado)</text>
  <line style="fill: none; fill-opacity:0; stroke-width: 0.1; stroke-dasharray: 0.4; stroke: #000000" x1="6.22745" y1="10.9341" x2="12.3875" y2="11"/>
  <polygon style="fill: #000000" points="6.23013,10.6841 5.4275,10.9255 6.22478,11.1841 "/>
  <text style="fill: #000000; font-size: 0.8 cm; length: 2.125 cm; font-family: sans; font-style: normal; font-weight: normal" x="7.82005" y="11.4625">listado </text>
  <ellipse style="fill: #ffffff" cx="5.0275" cy="1.37" rx="0.3" ry="0.3"/>
  <ellipse style="fill: none; fill-opacity:0; stroke-width: 0.1; stroke: #000000" cx="5.0275" cy="1.37" rx="0.3" ry="0.3"/>
  <line style="fill: none; fill-opacity:0; stroke-width: 0.1; stroke: #000000" x1="3.8275" y1="1.97" x2="6.2275" y2="1.97"/>
  <line style="fill: none; fill-opacity:0; stroke-width: 0.1; stroke: #000000" x1="5.0275" y1="1.67" x2="5.0275" y2="3.17"/>
  <line style="fill: none; fill-opacity:0; stroke-width: 0.1; stroke: #000000" x1="5.0275" y1="3.17" x2="3.8275" y2="4.47"/>
  <line style="fill: none; fill-opacity:0; stroke-width: 0.1; stroke: #000000" x1="5.0275" y1="3.17" x2="6.2275" y2="4.47"/>
  <text style="fill: #000000; font-size: 0.8 cm; length: 8.985 cm; font-family: sans; font-style: normal; font-weight: normal" x="0.535" y="5.6125">Administrador de la asociación</text>
</svg>
