<?xml version="1.0" encoding="UTF-8" standalone="no"?>
<!DOCTYPE svg PUBLIC "-//W3C//DTD SVG 1.0//EN" "http://www.w3.org/TR/2001/PR-SVG-20010719/DTD/svg10.dtd">
<svg width="34cm" height="12cm" viewBox="13 -1 34 12">
  <ellipse style="fill: #ffffff" cx="14.4" cy="0.6" rx="0.3" ry="0.3"/>
  <ellipse style="fill: none; fill-opacity:0; stroke-width: 0.1; stroke: #000000" cx="14.4" cy="0.6" rx="0.3" ry="0.3"/>
  <line style="fill: none; fill-opacity:0; stroke-width: 0.1; stroke: #000000" x1="13.2" y1="1.2" x2="15.6" y2="1.2"/>
  <line style="fill: none; fill-opacity:0; stroke-width: 0.1; stroke: #000000" x1="14.4" y1="0.9" x2="14.4" y2="2.4"/>
  <line style="fill: none; fill-opacity:0; stroke-width: 0.1; stroke: #000000" x1="14.4" y1="2.4" x2="13.2" y2="3.7"/>
  <line style="fill: none; fill-opacity:0; stroke-width: 0.1; stroke: #000000" x1="14.4" y1="2.4" x2="15.6" y2="3.7"/>
  <text style="fill: #000000; font-size: 0.8 cm; length: 1.5675 cm; font-family: sans; font-style: normal; font-weight: normal" x="13.6163" y="4.8425">Socio</text>
  <rect style="fill: #ffffff" x="29.5" y="3.25" width="3.475" height="1.8"/>
  <rect style="fill: none; fill-opacity:0; stroke-width: 0.1; stroke: #000000" x="29.5" y="3.25" width="3.475" height="1.8"/>
  <text style="fill: #000000; font-size: 0.8 cm; length: 2.475 cm; font-family: sans; font-style: normal; font-weight: normal" x="30" y="4.2925">:sistema</text>
  <line style="fill: none; fill-opacity:0; stroke-width: 0.05; stroke: #000000" x1="30" y1="4.4325" x2="32.475" y2="4.4325"/>
  <line style="fill: none; fill-opacity:0; stroke-width: 0.05; stroke-dasharray: 0.4; stroke: #000000" x1="14.4" y1="5.1" x2="14.4" y2="10"/>
  <rect style="fill: #ffffff" x="14.05" y="6.1" width="0.7" height="1.85"/>
  <rect style="fill: none; fill-opacity:0; stroke-width: 0.1; stroke: #000000" x="14.05" y="6.1" width="0.7" height="1.85"/>
  <line style="fill: none; fill-opacity:0; stroke-width: 0.12; stroke: #000000" x1="15.2" y1="10.8" x2="13.6" y2="9.2"/>
  <line style="fill: none; fill-opacity:0; stroke-width: 0.12; stroke: #000000" x1="15.2" y1="9.2" x2="13.6" y2="10.8"/>
  <line style="fill: none; fill-opacity:0; stroke-width: 0.05; stroke-dasharray: 0.4; stroke: #000000" x1="31.2375" y1="5.05" x2="31.2375" y2="10"/>
  <rect style="fill: #ffffff" x="30.8875" y="6.05" width="0.7" height="1.9"/>
  <rect style="fill: none; fill-opacity:0; stroke-width: 0.1; stroke: #000000" x="30.8875" y="6.05" width="0.7" height="1.9"/>
  <line style="fill: none; fill-opacity:0; stroke-width: 0.12; stroke: #000000" x1="32.0375" y1="10.8" x2="30.4375" y2="9.2"/>
  <line style="fill: none; fill-opacity:0; stroke-width: 0.12; stroke: #000000" x1="32.0375" y1="9.2" x2="30.4375" y2="10.8"/>
  <line style="fill: none; fill-opacity:0; stroke-width: 0.1; stroke: #000000" x1="30.0375" y1="6.05263" x2="14.75" y2="6.1"/>
  <polygon style="fill: #000000" points="30.0383,6.30263 30.8375,6.05015 30.0367,5.80263 "/>
  <text style="fill: #000000; font-size: 0.8 cm; length: 14.215 cm; font-family: sans; font-style: normal; font-weight: normal" x="15.7113" y="6.575">AnyadirActividad(fechaActividad,datosActividad)</text>
  <line style="fill: none; fill-opacity:0; stroke-width: 0.1; stroke: #000000" x1="31.5875" y1="6.05" x2="46.15" y2="6.05"/>
  <line style="fill: none; fill-opacity:0; stroke-width: 0.1; stroke: #000000" x1="46.15" y1="6.05" x2="46.15" y2="7.2"/>
  <line style="fill: none; fill-opacity:0; stroke-width: 0.1; stroke: #000000" x1="32.4375" y1="7.2" x2="46.15" y2="7.2"/>
  <polygon style="fill: #000000" points="32.4375,6.95 31.6375,7.2 32.4375,7.45 "/>
  <text style="fill: #000000; font-size: 0.8 cm; length: 14.24 cm; font-family: sans; font-style: normal; font-weight: normal" x="31.7487" y="7.125">InsertarActividad(fechaActividad,datosActividad)</text>
</svg>
