<?xml version="1.0" encoding="UTF-8" standalone="no"?>
<!DOCTYPE svg PUBLIC "-//W3C//DTD SVG 1.0//EN" "http://www.w3.org/TR/2001/PR-SVG-20010719/DTD/svg10.dtd">
<svg width="31cm" height="12cm" viewBox="12 -1 31 12">
  <ellipse style="fill: #ffffff" cx="13.8688" cy="0.615" rx="0.3" ry="0.3"/>
  <ellipse style="fill: none; fill-opacity:0; stroke-width: 0.1; stroke: #000000" cx="13.8688" cy="0.615" rx="0.3" ry="0.3"/>
  <line style="fill: none; fill-opacity:0; stroke-width: 0.1; stroke: #000000" x1="12.6688" y1="1.215" x2="15.0688" y2="1.215"/>
  <line style="fill: none; fill-opacity:0; stroke-width: 0.1; stroke: #000000" x1="13.8688" y1="0.915" x2="13.8688" y2="2.415"/>
  <line style="fill: none; fill-opacity:0; stroke-width: 0.1; stroke: #000000" x1="13.8688" y1="2.415" x2="12.6688" y2="3.715"/>
  <line style="fill: none; fill-opacity:0; stroke-width: 0.1; stroke: #000000" x1="13.8688" y1="2.415" x2="15.0688" y2="3.715"/>
  <text style="fill: #000000; font-size: 0.8 cm; length: 2.9775 cm; font-family: sans; font-style: normal; font-weight: normal" x="12.3801" y="4.8575">Secretario</text>
  <rect style="fill: #ffffff" x="27.02" y="3.26" width="3.7275" height="1.8"/>
  <rect style="fill: none; fill-opacity:0; stroke-width: 0.1; stroke: #000000" x="27.02" y="3.26" width="3.7275" height="1.8"/>
  <text style="fill: #000000; font-size: 0.8 cm; length: 2.7275 cm; font-family: sans; font-style: normal; font-weight: normal" x="27.52" y="4.3025">:Sistema </text>
  <line style="fill: none; fill-opacity:0; stroke-width: 0.05; stroke: #000000" x1="27.52" y1="4.4425" x2="30.2475" y2="4.4425"/>
  <line style="fill: none; fill-opacity:0; stroke-width: 0.05; stroke-dasharray: 0.4; stroke: #000000" x1="13.8688" y1="5.115" x2="13.8688" y2="10.05"/>
  <rect style="fill: #ffffff" x="13.5188" y="6.115" width="0.7" height="1.935"/>
  <rect style="fill: none; fill-opacity:0; stroke-width: 0.1; stroke: #000000" x="13.5188" y="6.115" width="0.7" height="1.935"/>
  <line style="fill: none; fill-opacity:0; stroke-width: 0.12; stroke: #000000" x1="14.6688" y1="10.85" x2="13.0688" y2="9.25"/>
  <line style="fill: none; fill-opacity:0; stroke-width: 0.12; stroke: #000000" x1="14.6688" y1="9.25" x2="13.0688" y2="10.85"/>
  <line style="fill: none; fill-opacity:0; stroke-width: 0.05; stroke-dasharray: 0.4; stroke: #000000" x1="28.8837" y1="5.06" x2="28.8837" y2="10.1"/>
  <rect style="fill: #ffffff" x="28.5337" y="6.06" width="0.7" height="2.04"/>
  <rect style="fill: none; fill-opacity:0; stroke-width: 0.1; stroke: #000000" x="28.5337" y="6.06" width="0.7" height="2.04"/>
  <line style="fill: none; fill-opacity:0; stroke-width: 0.12; stroke: #000000" x1="29.6837" y1="10.9" x2="28.0837" y2="9.3"/>
  <line style="fill: none; fill-opacity:0; stroke-width: 0.12; stroke: #000000" x1="29.6837" y1="9.3" x2="28.0837" y2="10.9"/>
  <line style="fill: none; fill-opacity:0; stroke-width: 0.1; stroke: #000000" x1="27.6837" y1="6.06327" x2="14.2188" y2="6.115"/>
  <polygon style="fill: #000000" points="27.6847,6.31326 28.4837,6.06019 27.6827,5.81327 "/>
  <text style="fill: #000000; font-size: 0.8 cm; length: 12.52 cm; font-family: sans; font-style: normal; font-weight: normal" x="15.1162" y="6.5875">ModificarProyecti(idProyecto,nuevosDatos)</text>
  <line style="fill: none; fill-opacity:0; stroke-width: 0.1; stroke: #000000" x1="29.2337" y1="6.06" x2="42.75" y2="6.06"/>
  <line style="fill: none; fill-opacity:0; stroke-width: 0.1; stroke: #000000" x1="42.75" y1="6.06" x2="42.75" y2="7.4"/>
  <line style="fill: none; fill-opacity:0; stroke-width: 0.1; stroke: #000000" x1="30.0837" y1="7.4" x2="42.75" y2="7.4"/>
  <polygon style="fill: #000000" points="30.0837,7.15 29.2837,7.4 30.0837,7.65 "/>
  <text style="fill: #000000; font-size: 0.8 cm; length: 12.9275 cm; font-family: sans; font-style: normal; font-weight: normal" x="29.5282" y="7.23">ActualizarProyecto(idProyecto,nuevosDatos)</text>
</svg>
