<?xml version="1.0" encoding="UTF-8" standalone="no"?>
<!DOCTYPE svg PUBLIC "-//W3C//DTD SVG 1.0//EN" "http://www.w3.org/TR/2001/PR-SVG-20010719/DTD/svg10.dtd">
<svg width="23cm" height="12cm" viewBox="13 -1 23 12">
  <ellipse style="fill: #ffffff" cx="14.4" cy="0.6" rx="0.3" ry="0.3"/>
  <ellipse style="fill: none; fill-opacity:0; stroke-width: 0.1; stroke: #000000" cx="14.4" cy="0.6" rx="0.3" ry="0.3"/>
  <line style="fill: none; fill-opacity:0; stroke-width: 0.1; stroke: #000000" x1="13.2" y1="1.2" x2="15.6" y2="1.2"/>
  <line style="fill: none; fill-opacity:0; stroke-width: 0.1; stroke: #000000" x1="14.4" y1="0.9" x2="14.4" y2="2.4"/>
  <line style="fill: none; fill-opacity:0; stroke-width: 0.1; stroke: #000000" x1="14.4" y1="2.4" x2="13.2" y2="3.7"/>
  <line style="fill: none; fill-opacity:0; stroke-width: 0.1; stroke: #000000" x1="14.4" y1="2.4" x2="15.6" y2="3.7"/>
  <text style="fill: #000000; font-size: 0.8 cm; length: 1.5675 cm; font-family: sans; font-style: normal; font-weight: normal" x="13.6163" y="4.8425">Socio</text>
  <rect style="fill: #ffffff" x="24.15" y="3.25" width="3.475" height="1.8"/>
  <rect style="fill: none; fill-opacity:0; stroke-width: 0.1; stroke: #000000" x="24.15" y="3.25" width="3.475" height="1.8"/>
  <text style="fill: #000000; font-size: 0.8 cm; length: 2.475 cm; font-family: sans; font-style: normal; font-weight: normal" x="24.65" y="4.2925">:sistema</text>
  <line style="fill: none; fill-opacity:0; stroke-width: 0.05; stroke: #000000" x1="24.65" y1="4.4325" x2="27.125" y2="4.4325"/>
  <line style="fill: none; fill-opacity:0; stroke-width: 0.05; stroke-dasharray: 0.4; stroke: #000000" x1="14.4" y1="5.1" x2="14.4" y2="10.05"/>
  <rect style="fill: #ffffff" x="14.05" y="6.1" width="0.7" height="1.95"/>
  <rect style="fill: none; fill-opacity:0; stroke-width: 0.1; stroke: #000000" x="14.05" y="6.1" width="0.7" height="1.95"/>
  <line style="fill: none; fill-opacity:0; stroke-width: 0.12; stroke: #000000" x1="15.2" y1="10.85" x2="13.6" y2="9.25"/>
  <line style="fill: none; fill-opacity:0; stroke-width: 0.12; stroke: #000000" x1="15.2" y1="9.25" x2="13.6" y2="10.85"/>
  <line style="fill: none; fill-opacity:0; stroke-width: 0.05; stroke-dasharray: 0.4; stroke: #000000" x1="25.8875" y1="5.05" x2="25.8875" y2="10"/>
  <rect style="fill: #ffffff" x="25.5375" y="6.05" width="0.7" height="1.85"/>
  <rect style="fill: none; fill-opacity:0; stroke-width: 0.1; stroke: #000000" x="25.5375" y="6.05" width="0.7" height="1.85"/>
  <line style="fill: none; fill-opacity:0; stroke-width: 0.12; stroke: #000000" x1="26.6875" y1="10.8" x2="25.0875" y2="9.2"/>
  <line style="fill: none; fill-opacity:0; stroke-width: 0.12; stroke: #000000" x1="26.6875" y1="9.2" x2="25.0875" y2="10.8"/>
  <line style="fill: none; fill-opacity:0; stroke-width: 0.1; stroke: #000000" x1="24.6875" y1="6.05394" x2="14.75" y2="6.1"/>
  <polygon style="fill: #000000" points="24.6887,6.30394 25.4875,6.05023 24.6864,5.80394 "/>
  <text style="fill: #000000; font-size: 0.8 cm; length: 8.6275 cm; font-family: sans; font-style: normal; font-weight: normal" x="15.83" y="6.575">EliminarContacto(idContacto)</text>
  <line style="fill: none; fill-opacity:0; stroke-width: 0.1; stroke: #000000" x1="26.2375" y1="6.05" x2="35" y2="6.05"/>
  <line style="fill: none; fill-opacity:0; stroke-width: 0.1; stroke: #000000" x1="35" y1="6.05" x2="35" y2="7.25"/>
  <line style="fill: none; fill-opacity:0; stroke-width: 0.1; stroke: #000000" x1="27.0875" y1="7.25" x2="35" y2="7.25"/>
  <polygon style="fill: #000000" points="27.0875,7 26.2875,7.25 27.0875,7.5 "/>
  <text style="fill: #000000; font-size: 0.8 cm; length: 8.0625 cm; font-family: sans; font-style: normal; font-weight: normal" x="26.5875" y="7.15">BorrarContacto(idContacto)</text>
</svg>
