<?xml version="1.0" encoding="UTF-8" standalone="no"?>
<!DOCTYPE svg PUBLIC "-//W3C//DTD SVG 1.0//EN" "http://www.w3.org/TR/2001/PR-SVG-20010719/DTD/svg10.dtd">
<svg width="31cm" height="12cm" viewBox="12 -1 31 12">
  <ellipse style="fill: #ffffff" cx="13.8088" cy="0.48" rx="0.3" ry="0.3"/>
  <ellipse style="fill: none; fill-opacity:0; stroke-width: 0.1; stroke: #000000" cx="13.8088" cy="0.48" rx="0.3" ry="0.3"/>
  <line style="fill: none; fill-opacity:0; stroke-width: 0.1; stroke: #000000" x1="12.6088" y1="1.08" x2="15.0088" y2="1.08"/>
  <line style="fill: none; fill-opacity:0; stroke-width: 0.1; stroke: #000000" x1="13.8088" y1="0.78" x2="13.8088" y2="2.28"/>
  <line style="fill: none; fill-opacity:0; stroke-width: 0.1; stroke: #000000" x1="13.8088" y1="2.28" x2="12.6088" y2="3.58"/>
  <line style="fill: none; fill-opacity:0; stroke-width: 0.1; stroke: #000000" x1="13.8088" y1="2.28" x2="15.0088" y2="3.58"/>
  <text style="fill: #000000; font-size: 0.8 cm; length: 2.9775 cm; font-family: sans; font-style: normal; font-weight: normal" x="12.3201" y="4.7225">Secretario</text>
  <rect style="fill: #ffffff" x="27.025" y="3.125" width="3.7275" height="1.8"/>
  <rect style="fill: none; fill-opacity:0; stroke-width: 0.1; stroke: #000000" x="27.025" y="3.125" width="3.7275" height="1.8"/>
  <text style="fill: #000000; font-size: 0.8 cm; length: 2.7275 cm; font-family: sans; font-style: normal; font-weight: normal" x="27.525" y="4.1675">:Sistema </text>
  <line style="fill: none; fill-opacity:0; stroke-width: 0.05; stroke: #000000" x1="27.525" y1="4.3075" x2="30.2525" y2="4.3075"/>
  <line style="fill: none; fill-opacity:0; stroke-width: 0.05; stroke-dasharray: 0.4; stroke: #000000" x1="13.8088" y1="4.98" x2="13.8088" y2="10.05"/>
  <rect style="fill: #ffffff" x="13.4588" y="5.98" width="0.7" height="2.02"/>
  <rect style="fill: none; fill-opacity:0; stroke-width: 0.1; stroke: #000000" x="13.4588" y="5.98" width="0.7" height="2.02"/>
  <line style="fill: none; fill-opacity:0; stroke-width: 0.12; stroke: #000000" x1="14.6088" y1="10.85" x2="13.0088" y2="9.25"/>
  <line style="fill: none; fill-opacity:0; stroke-width: 0.12; stroke: #000000" x1="14.6088" y1="9.25" x2="13.0088" y2="10.85"/>
  <line style="fill: none; fill-opacity:0; stroke-width: 0.05; stroke-dasharray: 0.4; stroke: #000000" x1="28.8888" y1="4.925" x2="28.8888" y2="10.05"/>
  <rect style="fill: #ffffff" x="28.5388" y="5.925" width="0.7" height="2.125"/>
  <rect style="fill: none; fill-opacity:0; stroke-width: 0.1; stroke: #000000" x="28.5388" y="5.925" width="0.7" height="2.125"/>
  <line style="fill: none; fill-opacity:0; stroke-width: 0.12; stroke: #000000" x1="29.6888" y1="10.85" x2="28.0888" y2="9.25"/>
  <line style="fill: none; fill-opacity:0; stroke-width: 0.12; stroke: #000000" x1="29.6888" y1="9.25" x2="28.0888" y2="10.85"/>
  <line style="fill: none; fill-opacity:0; stroke-width: 0.1; stroke: #000000" x1="27.6888" y1="5.92825" x2="14.1588" y2="5.98"/>
  <polygon style="fill: #000000" points="27.6898,6.17825 28.4888,5.92519 27.6879,5.67825 "/>
  <text style="fill: #000000; font-size: 0.8 cm; length: 12.605 cm; font-family: sans; font-style: normal; font-weight: normal" x="15.0463" y="6.4525">ModificarDecision(idDecision,nuevosDatos)</text>
  <line style="fill: none; fill-opacity:0; stroke-width: 0.1; stroke: #000000" x1="29.2388" y1="5.925" x2="42.5" y2="5.925"/>
  <line style="fill: none; fill-opacity:0; stroke-width: 0.1; stroke: #000000" x1="42.5" y1="5.925" x2="42.5" y2="7.5"/>
  <line style="fill: none; fill-opacity:0; stroke-width: 0.1; stroke: #000000" x1="30.0888" y1="7.5" x2="42.5" y2="7.5"/>
  <polygon style="fill: #000000" points="30.0888,7.25 29.2888,7.5 30.0888,7.75 "/>
  <text style="fill: #000000; font-size: 0.8 cm; length: 12.8175 cm; font-family: sans; font-style: normal; font-weight: normal" x="29.4606" y="7.2125">ActualizarDecision(idDecision,nuevosDatos)</text>
</svg>
