<?xml version="1.0" encoding="UTF-8" standalone="no"?>
<!DOCTYPE svg PUBLIC "-//W3C//DTD SVG 1.0//EN" "http://www.w3.org/TR/2001/PR-SVG-20010719/DTD/svg10.dtd">
<svg width="27cm" height="12cm" viewBox="12 -1 27 12">
  <ellipse style="fill: #ffffff" cx="13.9788" cy="0.55" rx="0.3" ry="0.3"/>
  <ellipse style="fill: none; fill-opacity:0; stroke-width: 0.1; stroke: #000000" cx="13.9788" cy="0.55" rx="0.3" ry="0.3"/>
  <line style="fill: none; fill-opacity:0; stroke-width: 0.1; stroke: #000000" x1="12.7788" y1="1.15" x2="15.1788" y2="1.15"/>
  <line style="fill: none; fill-opacity:0; stroke-width: 0.1; stroke: #000000" x1="13.9788" y1="0.85" x2="13.9788" y2="2.35"/>
  <line style="fill: none; fill-opacity:0; stroke-width: 0.1; stroke: #000000" x1="13.9788" y1="2.35" x2="12.7788" y2="3.65"/>
  <line style="fill: none; fill-opacity:0; stroke-width: 0.1; stroke: #000000" x1="13.9788" y1="2.35" x2="15.1788" y2="3.65"/>
  <text style="fill: #000000; font-size: 0.8 cm; length: 2.9775 cm; font-family: sans; font-style: normal; font-weight: normal" x="12.4901" y="4.7925">Secretario</text>
  <rect style="fill: #ffffff" x="27.07" y="3.2" width="3.7275" height="1.8"/>
  <rect style="fill: none; fill-opacity:0; stroke-width: 0.1; stroke: #000000" x="27.07" y="3.2" width="3.7275" height="1.8"/>
  <text style="fill: #000000; font-size: 0.8 cm; length: 2.7275 cm; font-family: sans; font-style: normal; font-weight: normal" x="27.57" y="4.2425">:Sistema </text>
  <line style="fill: none; fill-opacity:0; stroke-width: 0.05; stroke: #000000" x1="27.57" y1="4.3825" x2="30.2975" y2="4.3825"/>
  <line style="fill: none; fill-opacity:0; stroke-width: 0.05; stroke-dasharray: 0.4; stroke: #000000" x1="13.9788" y1="5.05" x2="13.9788" y2="10"/>
  <rect style="fill: #ffffff" x="13.6288" y="6.05" width="0.7" height="1.9"/>
  <rect style="fill: none; fill-opacity:0; stroke-width: 0.1; stroke: #000000" x="13.6288" y="6.05" width="0.7" height="1.9"/>
  <line style="fill: none; fill-opacity:0; stroke-width: 0.12; stroke: #000000" x1="14.7788" y1="10.8" x2="13.1788" y2="9.2"/>
  <line style="fill: none; fill-opacity:0; stroke-width: 0.12; stroke: #000000" x1="14.7788" y1="9.2" x2="13.1788" y2="10.8"/>
  <line style="fill: none; fill-opacity:0; stroke-width: 0.05; stroke-dasharray: 0.4; stroke: #000000" x1="28.9338" y1="5" x2="28.9338" y2="10"/>
  <rect style="fill: #ffffff" x="28.5838" y="6" width="0.7" height="1.9"/>
  <rect style="fill: none; fill-opacity:0; stroke-width: 0.1; stroke: #000000" x="28.5838" y="6" width="0.7" height="1.9"/>
  <line style="fill: none; fill-opacity:0; stroke-width: 0.12; stroke: #000000" x1="29.7338" y1="10.8" x2="28.1338" y2="9.2"/>
  <line style="fill: none; fill-opacity:0; stroke-width: 0.12; stroke: #000000" x1="29.7338" y1="9.2" x2="28.1338" y2="10.8"/>
  <line style="fill: none; fill-opacity:0; stroke-width: 0.1; stroke: #000000" x1="27.7338" y1="6.00298" x2="14.3288" y2="6.05"/>
  <polygon style="fill: #000000" points="27.7347,6.25298 28.5338,6.00018 27.7329,5.75298 "/>
  <text style="fill: #000000; font-size: 0.8 cm; length: 9.3825 cm; font-family: sans; font-style: normal; font-weight: normal" x="16.765" y="6.525">AnyadirProyecto(datosProyecto)</text>
  <line style="fill: none; fill-opacity:0; stroke-width: 0.1; stroke: #000000" x1="29.2838" y1="6" x2="39.1" y2="6"/>
  <line style="fill: none; fill-opacity:0; stroke-width: 0.1; stroke: #000000" x1="39.1" y1="6" x2="39.1" y2="7.6"/>
  <line style="fill: none; fill-opacity:0; stroke-width: 0.1; stroke: #000000" x1="30.1338" y1="7.6" x2="39.1" y2="7.6"/>
  <polygon style="fill: #000000" points="30.1338,7.35 29.3338,7.6 30.1338,7.85 "/>
  <text style="fill: #000000; font-size: 0.8 cm; length: 9.4075 cm; font-family: sans; font-style: normal; font-weight: normal" x="29.4881" y="7.3">InsertarProyecto(datosProyecto)</text>
</svg>
