<?xml version="1.0" encoding="UTF-8" standalone="no"?>
<!DOCTYPE svg PUBLIC "-//W3C//DTD SVG 1.0//EN" "http://www.w3.org/TR/2001/PR-SVG-20010719/DTD/svg10.dtd">
<svg width="32cm" height="13cm" viewBox="10 -1 32 13">
  <ellipse style="fill: #ffffff" cx="11.65" cy="0.55" rx="0.3" ry="0.3"/>
  <ellipse style="fill: none; fill-opacity:0; stroke-width: 0.1; stroke: #000000" cx="11.65" cy="0.55" rx="0.3" ry="0.3"/>
  <line style="fill: none; fill-opacity:0; stroke-width: 0.1; stroke: #000000" x1="10.45" y1="1.15" x2="12.85" y2="1.15"/>
  <line style="fill: none; fill-opacity:0; stroke-width: 0.1; stroke: #000000" x1="11.65" y1="0.85" x2="11.65" y2="2.35"/>
  <line style="fill: none; fill-opacity:0; stroke-width: 0.1; stroke: #000000" x1="11.65" y1="2.35" x2="10.45" y2="3.65"/>
  <line style="fill: none; fill-opacity:0; stroke-width: 0.1; stroke: #000000" x1="11.65" y1="2.35" x2="12.85" y2="3.65"/>
  <text style="fill: #000000; font-size: 0.8 cm; length: 2.9775 cm; font-family: sans; font-style: normal; font-weight: normal" x="10.1613" y="4.7925">Secretario</text>
  <rect style="fill: #ffffff" x="23.25" y="3.25" width="3.475" height="1.8"/>
  <rect style="fill: none; fill-opacity:0; stroke-width: 0.1; stroke: #000000" x="23.25" y="3.25" width="3.475" height="1.8"/>
  <text style="fill: #000000; font-size: 0.8 cm; length: 2.475 cm; font-family: sans; font-style: normal; font-weight: normal" x="23.75" y="4.2925">:sistema</text>
  <line style="fill: none; fill-opacity:0; stroke-width: 0.05; stroke: #000000" x1="23.75" y1="4.4325" x2="26.225" y2="4.4325"/>
  <line style="fill: none; fill-opacity:0; stroke-width: 0.05; stroke-dasharray: 0.4; stroke: #000000" x1="11.65" y1="5.05" x2="11.65" y2="11.1"/>
  <rect style="fill: #ffffff" x="11.3" y="6.05" width="0.7" height="2.85"/>
  <rect style="fill: none; fill-opacity:0; stroke-width: 0.1; stroke: #000000" x="11.3" y="6.05" width="0.7" height="2.85"/>
  <line style="fill: none; fill-opacity:0; stroke-width: 0.12; stroke: #000000" x1="12.45" y1="11.9" x2="10.85" y2="10.3"/>
  <line style="fill: none; fill-opacity:0; stroke-width: 0.12; stroke: #000000" x1="12.45" y1="10.3" x2="10.85" y2="11.9"/>
  <line style="fill: none; fill-opacity:0; stroke-width: 0.05; stroke-dasharray: 0.4; stroke: #000000" x1="24.9875" y1="5.05" x2="24.9875" y2="11.1"/>
  <rect style="fill: #ffffff" x="24.6375" y="6.05" width="0.7" height="3.05"/>
  <rect style="fill: none; fill-opacity:0; stroke-width: 0.1; stroke: #000000" x="24.6375" y="6.05" width="0.7" height="3.05"/>
  <line style="fill: none; fill-opacity:0; stroke-width: 0.12; stroke: #000000" x1="25.7875" y1="11.9" x2="24.1875" y2="10.3"/>
  <line style="fill: none; fill-opacity:0; stroke-width: 0.12; stroke: #000000" x1="25.7875" y1="10.3" x2="24.1875" y2="11.9"/>
  <line style="fill: none; fill-opacity:0; stroke-width: 0.1; stroke: #000000" x1="23.7875" y1="6.05" x2="12" y2="6.05"/>
  <polygon style="fill: #000000" points="23.7875,6.3 24.5875,6.05 23.7875,5.8 "/>
  <text style="fill: #000000; font-size: 0.8 cm; length: 10.705 cm; font-family: sans; font-style: normal; font-weight: normal" x="12.9663" y="6.55">AnyadirMiembro(numSocio,posicion)</text>
  <line style="fill: none; fill-opacity:0; stroke-width: 0.1; stroke: #000000" x1="25.3375" y1="6.05" x2="41.2" y2="6.05"/>
  <line style="fill: none; fill-opacity:0; stroke-width: 0.1; stroke: #000000" x1="41.2" y1="6.05" x2="41.2" y2="7.55"/>
  <line style="fill: none; fill-opacity:0; stroke-width: 0.1; stroke: #000000" x1="26.1875" y1="7.55" x2="41.2" y2="7.55"/>
  <polygon style="fill: #000000" points="26.1875,7.3 25.3875,7.55 26.1875,7.8 "/>
  <text style="fill: #000000; font-size: 0.8 cm; length: 15.9375 cm; font-family: sans; font-style: normal; font-weight: normal" x="25.3" y="7.3">InsertarDirectivo(numSocio,posicion,fecha,otrosDatos)</text>
</svg>
