<?xml version="1.0" encoding="UTF-8" standalone="no"?>
<!DOCTYPE svg PUBLIC "-//W3C//DTD SVG 1.0//EN" "http://www.w3.org/TR/2001/PR-SVG-20010719/DTD/svg10.dtd">
<svg width="30cm" height="12cm" viewBox="13 -1 30 12">
  <ellipse style="fill: #ffffff" cx="14.4" cy="0.6" rx="0.3" ry="0.3"/>
  <ellipse style="fill: none; fill-opacity:0; stroke-width: 0.1; stroke: #000000" cx="14.4" cy="0.6" rx="0.3" ry="0.3"/>
  <line style="fill: none; fill-opacity:0; stroke-width: 0.1; stroke: #000000" x1="13.2" y1="1.2" x2="15.6" y2="1.2"/>
  <line style="fill: none; fill-opacity:0; stroke-width: 0.1; stroke: #000000" x1="14.4" y1="0.9" x2="14.4" y2="2.4"/>
  <line style="fill: none; fill-opacity:0; stroke-width: 0.1; stroke: #000000" x1="14.4" y1="2.4" x2="13.2" y2="3.7"/>
  <line style="fill: none; fill-opacity:0; stroke-width: 0.1; stroke: #000000" x1="14.4" y1="2.4" x2="15.6" y2="3.7"/>
  <text style="fill: #000000; font-size: 0.8 cm; length: 1.5675 cm; font-family: sans; font-style: normal; font-weight: normal" x="13.6163" y="4.8425">Socio</text>
  <rect style="fill: #ffffff" x="27.2" y="3.3" width="3.475" height="1.8"/>
  <rect style="fill: none; fill-opacity:0; stroke-width: 0.1; stroke: #000000" x="27.2" y="3.3" width="3.475" height="1.8"/>
  <text style="fill: #000000; font-size: 0.8 cm; length: 2.475 cm; font-family: sans; font-style: normal; font-weight: normal" x="27.7" y="4.3425">:sistema</text>
  <line style="fill: none; fill-opacity:0; stroke-width: 0.05; stroke: #000000" x1="27.7" y1="4.4825" x2="30.175" y2="4.4825"/>
  <line style="fill: none; fill-opacity:0; stroke-width: 0.05; stroke-dasharray: 0.4; stroke: #000000" x1="14.4" y1="5.1" x2="14.4" y2="10.05"/>
  <rect style="fill: #ffffff" x="14.05" y="6.1" width="0.7" height="1.85"/>
  <rect style="fill: none; fill-opacity:0; stroke-width: 0.1; stroke: #000000" x="14.05" y="6.1" width="0.7" height="1.85"/>
  <line style="fill: none; fill-opacity:0; stroke-width: 0.12; stroke: #000000" x1="15.2" y1="10.85" x2="13.6" y2="9.25"/>
  <line style="fill: none; fill-opacity:0; stroke-width: 0.12; stroke: #000000" x1="15.2" y1="9.25" x2="13.6" y2="10.85"/>
  <line style="fill: none; fill-opacity:0; stroke-width: 0.05; stroke-dasharray: 0.4; stroke: #000000" x1="28.9375" y1="5.1" x2="28.9375" y2="10"/>
  <rect style="fill: #ffffff" x="28.5875" y="6.1" width="0.7" height="1.95"/>
  <rect style="fill: none; fill-opacity:0; stroke-width: 0.1; stroke: #000000" x="28.5875" y="6.1" width="0.7" height="1.95"/>
  <line style="fill: none; fill-opacity:0; stroke-width: 0.12; stroke: #000000" x1="29.7375" y1="10.8" x2="28.1375" y2="9.2"/>
  <line style="fill: none; fill-opacity:0; stroke-width: 0.12; stroke: #000000" x1="29.7375" y1="9.2" x2="28.1375" y2="10.8"/>
  <line style="fill: none; fill-opacity:0; stroke-width: 0.1; stroke: #000000" x1="27.7375" y1="6.1" x2="14.75" y2="6.1"/>
  <polygon style="fill: #000000" points="27.7375,6.35 28.5375,6.1 27.7375,5.85 "/>
  <text style="fill: #000000; font-size: 0.8 cm; length: 12.96 cm; font-family: sans; font-style: normal; font-weight: normal" x="15.1887" y="6.6">modificarContacto(idContacto,nuevosDatos)</text>
  <line style="fill: none; fill-opacity:0; stroke-width: 0.1; stroke: #000000" x1="29.2875" y1="6.1" x2="42.6" y2="6.1"/>
  <line style="fill: none; fill-opacity:0; stroke-width: 0.1; stroke: #000000" x1="42.6" y1="6.1" x2="42.6" y2="7.4"/>
  <line style="fill: none; fill-opacity:0; stroke-width: 0.1; stroke: #000000" x1="30.1375" y1="7.4" x2="42.6" y2="7.4"/>
  <polygon style="fill: #000000" points="30.1375,7.15 29.3375,7.4 30.1375,7.65 "/>
  <text style="fill: #000000; font-size: 0.8 cm; length: 13.0775 cm; font-family: sans; font-style: normal; font-weight: normal" x="29.4051" y="7.25">actualizarContacto(idContacto,nuevosDatos)</text>
</svg>
