<?xml version="1.0" encoding="UTF-8" standalone="no"?>
<!DOCTYPE svg PUBLIC "-//W3C//DTD SVG 1.0//EN" "http://www.w3.org/TR/2001/PR-SVG-20010719/DTD/svg10.dtd">
<svg width="30cm" height="12cm" viewBox="12 -1 30 12">
  <ellipse style="fill: #ffffff" cx="14.0238" cy="0.62" rx="0.3" ry="0.3"/>
  <ellipse style="fill: none; fill-opacity:0; stroke-width: 0.1; stroke: #000000" cx="14.0238" cy="0.62" rx="0.3" ry="0.3"/>
  <line style="fill: none; fill-opacity:0; stroke-width: 0.1; stroke: #000000" x1="12.8238" y1="1.22" x2="15.2238" y2="1.22"/>
  <line style="fill: none; fill-opacity:0; stroke-width: 0.1; stroke: #000000" x1="14.0238" y1="0.92" x2="14.0238" y2="2.42"/>
  <line style="fill: none; fill-opacity:0; stroke-width: 0.1; stroke: #000000" x1="14.0238" y1="2.42" x2="12.8238" y2="3.72"/>
  <line style="fill: none; fill-opacity:0; stroke-width: 0.1; stroke: #000000" x1="14.0238" y1="2.42" x2="15.2238" y2="3.72"/>
  <text style="fill: #000000; font-size: 0.8 cm; length: 2.6275 cm; font-family: sans; font-style: normal; font-weight: normal" x="12.71" y="4.8625">Tesorero </text>
  <rect style="fill: #ffffff" x="27.11" y="3.27" width="3.475" height="1.8"/>
  <rect style="fill: none; fill-opacity:0; stroke-width: 0.1; stroke: #000000" x="27.11" y="3.27" width="3.475" height="1.8"/>
  <text style="fill: #000000; font-size: 0.8 cm; length: 2.475 cm; font-family: sans; font-style: normal; font-weight: normal" x="27.61" y="4.3125">:sistema</text>
  <line style="fill: none; fill-opacity:0; stroke-width: 0.05; stroke: #000000" x1="27.61" y1="4.4525" x2="30.085" y2="4.4525"/>
  <line style="fill: none; fill-opacity:0; stroke-width: 0.05; stroke-dasharray: 0.4; stroke: #000000" x1="14.0238" y1="5.12" x2="14.0238" y2="9.95"/>
  <rect style="fill: #ffffff" x="13.6738" y="6.12" width="0.7" height="1.88"/>
  <rect style="fill: none; fill-opacity:0; stroke-width: 0.1; stroke: #000000" x="13.6738" y="6.12" width="0.7" height="1.88"/>
  <line style="fill: none; fill-opacity:0; stroke-width: 0.12; stroke: #000000" x1="14.8238" y1="10.75" x2="13.2238" y2="9.15"/>
  <line style="fill: none; fill-opacity:0; stroke-width: 0.12; stroke: #000000" x1="14.8238" y1="9.15" x2="13.2238" y2="10.75"/>
  <line style="fill: none; fill-opacity:0; stroke-width: 0.05; stroke-dasharray: 0.4; stroke: #000000" x1="28.8475" y1="5.07" x2="28.8475" y2="10.05"/>
  <rect style="fill: #ffffff" x="28.4975" y="6.07" width="0.7" height="1.93"/>
  <rect style="fill: none; fill-opacity:0; stroke-width: 0.1; stroke: #000000" x="28.4975" y="6.07" width="0.7" height="1.93"/>
  <line style="fill: none; fill-opacity:0; stroke-width: 0.12; stroke: #000000" x1="29.6475" y1="10.85" x2="28.0475" y2="9.25"/>
  <line style="fill: none; fill-opacity:0; stroke-width: 0.12; stroke: #000000" x1="29.6475" y1="9.25" x2="28.0475" y2="10.85"/>
  <line style="fill: none; fill-opacity:0; stroke-width: 0.1; stroke: #000000" x1="27.6475" y1="6.07301" x2="14.3738" y2="6.12"/>
  <polygon style="fill: #000000" points="27.6484,6.32301 28.4475,6.07018 27.6466,5.82301 "/>
  <text style="fill: #000000; font-size: 0.8 cm; length: 11.92 cm; font-family: sans; font-style: normal; font-weight: normal" x="15.4756" y="6.595">AltaGasto(cantidad,resumen,otrosDatos)</text>
  <line style="fill: none; fill-opacity:0; stroke-width: 0.1; stroke: #000000" x1="29.1975" y1="6.07" x2="42.5" y2="6.07"/>
  <line style="fill: none; fill-opacity:0; stroke-width: 0.1; stroke: #000000" x1="42.5" y1="6.07" x2="42.5" y2="7.5"/>
  <line style="fill: none; fill-opacity:0; stroke-width: 0.1; stroke: #000000" x1="30.0475" y1="7.5" x2="42.5" y2="7.5"/>
  <polygon style="fill: #000000" points="30.0475,7.25 29.2475,7.5 30.0475,7.75 "/>
  <text style="fill: #000000; font-size: 0.8 cm; length: 13.0425 cm; font-family: sans; font-style: normal; font-weight: normal" x="29.3275" y="7.285">InsertarGasto(cantidad,resumen,otrosDatos)</text>
</svg>
