<?xml version="1.0" encoding="UTF-8" standalone="no"?>
<!DOCTYPE svg PUBLIC "-//W3C//DTD SVG 1.0//EN" "http://www.w3.org/TR/2001/PR-SVG-20010719/DTD/svg10.dtd">
<svg width="34cm" height="15cm" viewBox="9 -1 34 15">
  <ellipse style="fill: #ffffff" cx="38.5712" cy="0.59" rx="0.3" ry="0.3"/>
  <ellipse style="fill: none; fill-opacity:0; stroke-width: 0.1; stroke: #000000" cx="38.5712" cy="0.59" rx="0.3" ry="0.3"/>
  <line style="fill: none; fill-opacity:0; stroke-width: 0.1; stroke: #000000" x1="37.3712" y1="1.19" x2="39.7712" y2="1.19"/>
  <line style="fill: none; fill-opacity:0; stroke-width: 0.1; stroke: #000000" x1="38.5712" y1="0.89" x2="38.5712" y2="2.39"/>
  <line style="fill: none; fill-opacity:0; stroke-width: 0.1; stroke: #000000" x1="38.5712" y1="2.39" x2="37.3712" y2="3.69"/>
  <line style="fill: none; fill-opacity:0; stroke-width: 0.1; stroke: #000000" x1="38.5712" y1="2.39" x2="39.7712" y2="3.69"/>
  <text style="fill: #000000; font-size: 0.8 cm; length: 9.5825 cm; font-family: sans; font-style: normal; font-weight: normal" x="33.7799" y="4.8325">Administrador de la Herramienta</text>
  <ellipse style="fill: #ffffff" cx="14.0725" cy="0.49" rx="0.3" ry="0.3"/>
  <ellipse style="fill: none; fill-opacity:0; stroke-width: 0.1; stroke: #000000" cx="14.0725" cy="0.49" rx="0.3" ry="0.3"/>
  <line style="fill: none; fill-opacity:0; stroke-width: 0.1; stroke: #000000" x1="12.8725" y1="1.09" x2="15.2725" y2="1.09"/>
  <line style="fill: none; fill-opacity:0; stroke-width: 0.1; stroke: #000000" x1="14.0725" y1="0.79" x2="14.0725" y2="2.29"/>
  <line style="fill: none; fill-opacity:0; stroke-width: 0.1; stroke: #000000" x1="14.0725" y1="2.29" x2="12.8725" y2="3.59"/>
  <line style="fill: none; fill-opacity:0; stroke-width: 0.1; stroke: #000000" x1="14.0725" y1="2.29" x2="15.2725" y2="3.59"/>
  <text style="fill: #000000; font-size: 0.8 cm; length: 8.985 cm; font-family: sans; font-style: normal; font-weight: normal" x="9.58" y="4.7325">Administrador de la asociación</text>
  <rect style="fill: #ffffff" x="23.15" y="3" width="3.475" height="1.8"/>
  <rect style="fill: none; fill-opacity:0; stroke-width: 0.1; stroke: #000000" x="23.15" y="3" width="3.475" height="1.8"/>
  <text style="fill: #000000; font-size: 0.8 cm; length: 2.475 cm; font-family: sans; font-style: normal; font-weight: normal" x="23.65" y="4.0425">:sistema</text>
  <line style="fill: none; fill-opacity:0; stroke-width: 0.05; stroke: #000000" x1="23.65" y1="4.1825" x2="26.125" y2="4.1825"/>
  <line style="fill: none; fill-opacity:0; stroke-width: 0.05; stroke-dasharray: 0.4; stroke: #000000" x1="38.5712" y1="5.09" x2="38.5712" y2="13"/>
  <rect style="fill: #ffffff" x="38.2212" y="6.65" width="0.7" height="2.5"/>
  <rect style="fill: none; fill-opacity:0; stroke-width: 0.1; stroke: #000000" x="38.2212" y="6.65" width="0.7" height="2.5"/>
  <line style="fill: none; fill-opacity:0; stroke-width: 0.12; stroke: #000000" x1="39.3712" y1="13.8" x2="37.7712" y2="12.2"/>
  <line style="fill: none; fill-opacity:0; stroke-width: 0.12; stroke: #000000" x1="39.3712" y1="12.2" x2="37.7712" y2="13.8"/>
  <line style="fill: none; fill-opacity:0; stroke-width: 0.05; stroke-dasharray: 0.4; stroke: #000000" x1="24.8875" y1="4.8" x2="24.8875" y2="13.05"/>
  <rect style="fill: #ffffff" x="24.5375" y="6.05" width="0.7" height="4.85"/>
  <rect style="fill: none; fill-opacity:0; stroke-width: 0.1; stroke: #000000" x="24.5375" y="6.05" width="0.7" height="4.85"/>
  <line style="fill: none; fill-opacity:0; stroke-width: 0.12; stroke: #000000" x1="25.6875" y1="13.85" x2="24.0875" y2="12.25"/>
  <line style="fill: none; fill-opacity:0; stroke-width: 0.12; stroke: #000000" x1="25.6875" y1="12.25" x2="24.0875" y2="13.85"/>
  <line style="fill: none; fill-opacity:0; stroke-width: 0.05; stroke-dasharray: 0.4; stroke: #000000" x1="14.0725" y1="4.99" x2="14.0725" y2="13"/>
  <rect style="fill: #ffffff" x="13.7225" y="5.99" width="0.7" height="1.91"/>
  <rect style="fill: none; fill-opacity:0; stroke-width: 0.1; stroke: #000000" x="13.7225" y="5.99" width="0.7" height="1.91"/>
  <line style="fill: none; fill-opacity:0; stroke-width: 0.12; stroke: #000000" x1="14.8725" y1="13.8" x2="13.2725" y2="12.2"/>
  <line style="fill: none; fill-opacity:0; stroke-width: 0.12; stroke: #000000" x1="14.8725" y1="12.2" x2="13.2725" y2="13.8"/>
  <line style="fill: none; fill-opacity:0; stroke-width: 0.1; stroke: #000000" x1="23.6875" y1="6.04496" x2="14.4225" y2="5.99"/>
  <polygon style="fill: #000000" points="23.686,6.29495 24.4875,6.0497 23.689,5.79496 "/>
  <text style="fill: #000000; font-size: 0.8 cm; length: 7.665 cm; font-family: sans; font-style: normal; font-weight: normal" x="15.6475" y="6.52">solicitarBaja(idAsociacion)</text>
  <line style="fill: none; fill-opacity:0; stroke-width: 0.1; stroke: #000000" x1="37.3712" y1="6.65329" x2="25.3" y2="6.7"/>
  <polygon style="fill: #000000" points="37.3722,6.90329 38.1712,6.65019 37.3702,6.40329 "/>
  <text style="fill: #000000; font-size: 0.8 cm; length: 10.3425 cm; font-family: sans; font-style: normal; font-weight: normal" x="26.5893" y="7.175">NotificarBajaAsociacion(idSolicitud)</text>
  <line style="fill: none; fill-opacity:0; stroke-width: 0.1; stroke: #000000" x1="26.1" y1="7.85331" x2="38.1" y2="7.9"/>
  <polygon style="fill: #000000" points="26.101,7.60331 25.3,7.85019 26.099,8.10331 "/>
  <text style="fill: #000000; font-size: 0.8 cm; length: 10.7725 cm; font-family: sans; font-style: normal; font-weight: normal" x="26.2888" y="8.375">ConfirmarBajaAsociacion(idSolicitud)</text>
  <line style="fill: none; fill-opacity:0; stroke-width: 0.1; stroke: #000000" x1="25.3" y1="8.95" x2="35.65" y2="8.95"/>
  <line style="fill: none; fill-opacity:0; stroke-width: 0.1; stroke: #000000" x1="35.65" y1="8.95" x2="35.65" y2="10.4"/>
  <line style="fill: none; fill-opacity:0; stroke-width: 0.1; stroke: #000000" x1="26.15" y1="10.4" x2="35.65" y2="10.4"/>
  <polygon style="fill: #000000" points="26.15,10.15 25.35,10.4 26.15,10.65 "/>
  <text style="fill: #000000; font-size: 0.8 cm; length: 9.5925 cm; font-family: sans; font-style: normal; font-weight: normal" x="25.6788" y="10.175">EliminarAsociacion(idAsociacion)</text>
</svg>
