<?xml version="1.0" encoding="UTF-8" standalone="no"?>
<!DOCTYPE svg PUBLIC "-//W3C//DTD SVG 1.0//EN" "http://www.w3.org/TR/2001/PR-SVG-20010719/DTD/svg10.dtd">
<svg width="31cm" height="12cm" viewBox="12 -1 31 12">
  <ellipse style="fill: #ffffff" cx="13.9138" cy="0.425" rx="0.3" ry="0.3"/>
  <ellipse style="fill: none; fill-opacity:0; stroke-width: 0.1; stroke: #000000" cx="13.9138" cy="0.425" rx="0.3" ry="0.3"/>
  <line style="fill: none; fill-opacity:0; stroke-width: 0.1; stroke: #000000" x1="12.7138" y1="1.025" x2="15.1138" y2="1.025"/>
  <line style="fill: none; fill-opacity:0; stroke-width: 0.1; stroke: #000000" x1="13.9138" y1="0.725" x2="13.9138" y2="2.225"/>
  <line style="fill: none; fill-opacity:0; stroke-width: 0.1; stroke: #000000" x1="13.9138" y1="2.225" x2="12.7138" y2="3.525"/>
  <line style="fill: none; fill-opacity:0; stroke-width: 0.1; stroke: #000000" x1="13.9138" y1="2.225" x2="15.1138" y2="3.525"/>
  <text style="fill: #000000; font-size: 0.8 cm; length: 2.6275 cm; font-family: sans; font-style: normal; font-weight: normal" x="12.6" y="4.6675">Tesorero </text>
  <rect style="fill: #ffffff" x="27.1" y="3.025" width="3.475" height="1.8"/>
  <rect style="fill: none; fill-opacity:0; stroke-width: 0.1; stroke: #000000" x="27.1" y="3.025" width="3.475" height="1.8"/>
  <text style="fill: #000000; font-size: 0.8 cm; length: 2.475 cm; font-family: sans; font-style: normal; font-weight: normal" x="27.6" y="4.0675">:sistema</text>
  <line style="fill: none; fill-opacity:0; stroke-width: 0.05; stroke: #000000" x1="27.6" y1="4.2075" x2="30.075" y2="4.2075"/>
  <line style="fill: none; fill-opacity:0; stroke-width: 0.05; stroke-dasharray: 0.4; stroke: #000000" x1="13.9138" y1="4.925" x2="13.9138" y2="9.95"/>
  <rect style="fill: #ffffff" x="13.5638" y="5.925" width="0.7" height="2.125"/>
  <rect style="fill: none; fill-opacity:0; stroke-width: 0.1; stroke: #000000" x="13.5638" y="5.925" width="0.7" height="2.125"/>
  <line style="fill: none; fill-opacity:0; stroke-width: 0.12; stroke: #000000" x1="14.7138" y1="10.75" x2="13.1138" y2="9.15"/>
  <line style="fill: none; fill-opacity:0; stroke-width: 0.12; stroke: #000000" x1="14.7138" y1="9.15" x2="13.1138" y2="10.75"/>
  <line style="fill: none; fill-opacity:0; stroke-width: 0.05; stroke-dasharray: 0.4; stroke: #000000" x1="28.8375" y1="4.825" x2="28.8375" y2="9.95"/>
  <rect style="fill: #ffffff" x="28.4875" y="5.825" width="0.7" height="2.075"/>
  <rect style="fill: none; fill-opacity:0; stroke-width: 0.1; stroke: #000000" x="28.4875" y="5.825" width="0.7" height="2.075"/>
  <line style="fill: none; fill-opacity:0; stroke-width: 0.12; stroke: #000000" x1="29.6375" y1="10.75" x2="28.0375" y2="9.15"/>
  <line style="fill: none; fill-opacity:0; stroke-width: 0.12; stroke: #000000" x1="29.6375" y1="9.15" x2="28.0375" y2="10.75"/>
  <line style="fill: none; fill-opacity:0; stroke-width: 0.1; stroke: #000000" x1="27.6375" y1="5.83098" x2="14.2638" y2="5.925"/>
  <polygon style="fill: #000000" points="27.6393,6.08097 28.4375,5.82535 27.6358,5.58098 "/>
  <text style="fill: #000000; font-size: 0.8 cm; length: 12.575 cm; font-family: sans; font-style: normal; font-weight: normal" x="15.0881" y="6.375">AltaIngreso(cantodad,resumen,otrosDatos)</text>
  <line style="fill: none; fill-opacity:0; stroke-width: 0.1; stroke: #000000" x1="29.1875" y1="5.825" x2="43.45" y2="5.825"/>
  <line style="fill: none; fill-opacity:0; stroke-width: 0.1; stroke: #000000" x1="43.45" y1="5.825" x2="43.45" y2="6.95"/>
  <line style="fill: none; fill-opacity:0; stroke-width: 0.1; stroke: #000000" x1="30.0375" y1="6.95" x2="43.45" y2="6.95"/>
  <polygon style="fill: #000000" points="30.0375,6.7 29.2375,6.95 30.0375,7.2 "/>
  <text style="fill: #000000; font-size: 0.8 cm; length: 13.6975 cm; font-family: sans; font-style: normal; font-weight: normal" x="29.4701" y="6.8875">InsertarIngreso(cantodad,resumen,otrosDatos)</text>
</svg>
