<?xml version="1.0" encoding="UTF-8" standalone="no"?>
<!DOCTYPE svg PUBLIC "-//W3C//DTD SVG 1.0//EN" "http://www.w3.org/TR/2001/PR-SVG-20010719/DTD/svg10.dtd">
<svg width="25cm" height="6cm" viewBox="2 1 25 6">
  <ellipse style="fill: #ffffff" cx="13.6262" cy="4.19875" rx="3.49125" ry="1.16375"/>
  <ellipse style="fill: none; fill-opacity:0; stroke-width: 0.1; stroke: #000000" cx="13.6262" cy="4.19875" rx="3.49125" ry="1.16375"/>
  <text style="fill: #000000; font-size: 0.8 cm; length: 4.5825 cm; font-family: sans; font-style: normal; font-weight: normal" x="11.335" y="4.34125">Alta asociación </text>
  <ellipse style="fill: #ffffff" cx="5" cy="2.385" rx="0.3" ry="0.3"/>
  <ellipse style="fill: none; fill-opacity:0; stroke-width: 0.1; stroke: #000000" cx="5" cy="2.385" rx="0.3" ry="0.3"/>
  <line style="fill: none; fill-opacity:0; stroke-width: 0.1; stroke: #000000" x1="3.8" y1="2.985" x2="6.2" y2="2.985"/>
  <line style="fill: none; fill-opacity:0; stroke-width: 0.1; stroke: #000000" x1="5" y1="2.685" x2="5" y2="4.185"/>
  <line style="fill: none; fill-opacity:0; stroke-width: 0.1; stroke: #000000" x1="5" y1="4.185" x2="3.8" y2="5.485"/>
  <line style="fill: none; fill-opacity:0; stroke-width: 0.1; stroke: #000000" x1="5" y1="4.185" x2="6.2" y2="5.485"/>
  <text style="fill: #000000; font-size: 0.8 cm; length: 5.13 cm; font-family: sans; font-style: normal; font-weight: normal" x="2.435" y="6.6275">Usuario anónimo </text>
  <ellipse style="fill: #ffffff" cx="22.5262" cy="2.385" rx="0.3" ry="0.3"/>
  <ellipse style="fill: none; fill-opacity:0; stroke-width: 0.1; stroke: #000000" cx="22.5262" cy="2.385" rx="0.3" ry="0.3"/>
  <line style="fill: none; fill-opacity:0; stroke-width: 0.1; stroke: #000000" x1="21.3262" y1="2.985" x2="23.7262" y2="2.985"/>
  <line style="fill: none; fill-opacity:0; stroke-width: 0.1; stroke: #000000" x1="22.5262" y1="2.685" x2="22.5262" y2="4.185"/>
  <line style="fill: none; fill-opacity:0; stroke-width: 0.1; stroke: #000000" x1="22.5262" y1="4.185" x2="21.3262" y2="5.485"/>
  <line style="fill: none; fill-opacity:0; stroke-width: 0.1; stroke: #000000" x1="22.5262" y1="4.185" x2="23.7262" y2="5.485"/>
  <text style="fill: #000000; font-size: 0.8 cm; length: 9.515 cm; font-family: sans; font-style: normal; font-weight: normal" x="17.7687" y="6.6275">Administrador de la herramienta</text>
  <polyline style="fill: none; fill-opacity:0; stroke-width: 0.1; stroke: #000000" points="6.25,4.185 8.1,4.185 8.1,4.19875 9.91139,4.19875 "/>
  <polyline style="fill: none; fill-opacity:0; stroke-width: 0.1; stroke: #000000" points="9.5232,4.44875 10.0232,4.19875 9.5232,3.94875 "/>
  <polyline style="fill: none; fill-opacity:0; stroke-width: 0.1; stroke: #000000" points="21.2762,4.185 19.1968,4.185 19.1968,4.19875 17.3411,4.19875 "/>
  <polyline style="fill: none; fill-opacity:0; stroke-width: 0.1; stroke: #000000" points="17.7293,3.94875 17.2293,4.19875 17.7293,4.44875 "/>
</svg>
