<?xml version="1.0" encoding="UTF-8" standalone="no"?>
<!DOCTYPE svg PUBLIC "-//W3C//DTD SVG 1.0//EN" "http://www.w3.org/TR/2001/PR-SVG-20010719/DTD/svg10.dtd">
<svg width="19cm" height="7cm" viewBox="3 0 19 7">
  <ellipse style="fill: #ffffff" cx="5.1" cy="1.5" rx="0.3" ry="0.3"/>
  <ellipse style="fill: none; fill-opacity:0; stroke-width: 0.1; stroke: #000000" cx="5.1" cy="1.5" rx="0.3" ry="0.3"/>
  <line style="fill: none; fill-opacity:0; stroke-width: 0.1; stroke: #000000" x1="3.9" y1="2.1" x2="6.3" y2="2.1"/>
  <line style="fill: none; fill-opacity:0; stroke-width: 0.1; stroke: #000000" x1="5.1" y1="1.8" x2="5.1" y2="3.3"/>
  <line style="fill: none; fill-opacity:0; stroke-width: 0.1; stroke: #000000" x1="5.1" y1="3.3" x2="3.9" y2="4.6"/>
  <line style="fill: none; fill-opacity:0; stroke-width: 0.1; stroke: #000000" x1="5.1" y1="3.3" x2="6.3" y2="4.6"/>
  <text style="fill: #000000; font-size: 0.8 cm; length: 2.2175 cm; font-family: sans; font-style: normal; font-weight: normal" x="3.99125" y="5.7425">Usuario</text>
  <text style="fill: #000000; font-size: 0.8 cm; length: 2.7275 cm; font-family: sans; font-style: normal; font-weight: normal" x="3.73625" y="6.5425">anónimo </text>
  <ellipse style="fill: #ffffff" cx="20.9" cy="1.5" rx="0.3" ry="0.3"/>
  <ellipse style="fill: none; fill-opacity:0; stroke-width: 0.1; stroke: #000000" cx="20.9" cy="1.5" rx="0.3" ry="0.3"/>
  <line style="fill: none; fill-opacity:0; stroke-width: 0.1; stroke: #000000" x1="19.7" y1="2.1" x2="22.1" y2="2.1"/>
  <line style="fill: none; fill-opacity:0; stroke-width: 0.1; stroke: #000000" x1="20.9" y1="1.8" x2="20.9" y2="3.3"/>
  <line style="fill: none; fill-opacity:0; stroke-width: 0.1; stroke: #000000" x1="20.9" y1="3.3" x2="19.7" y2="4.6"/>
  <line style="fill: none; fill-opacity:0; stroke-width: 0.1; stroke: #000000" x1="20.9" y1="3.3" x2="22.1" y2="4.6"/>
  <text style="fill: #000000; font-size: 0.8 cm; length: 2.9775 cm; font-family: sans; font-style: normal; font-weight: normal" x="19.4112" y="5.7425">Secretario</text>
  <polyline style="fill: none; fill-opacity:0; stroke-width: 0.1; stroke: #000000" points="19.4109,3.3 17.3267,3.3 17.3267,3.2975 15.4661,3.2975 "/>
  <polyline style="fill: none; fill-opacity:0; stroke-width: 0.1; stroke: #000000" points="15.8543,3.0475 15.3543,3.2975 15.8543,3.5475 "/>
  <ellipse style="fill: #ffffff" cx="12.9213" cy="3.2975" rx="2.32125" ry="1.5475"/>
  <ellipse style="fill: none; fill-opacity:0; stroke-width: 0.1; stroke: #000000" cx="12.9213" cy="3.2975" rx="2.32125" ry="1.5475"/>
  <text style="fill: #000000; font-size: 0.8 cm; length: 2.2425 cm; font-family: sans; font-style: normal; font-weight: normal" x="11.8" y="3.04">Alta de </text>
  <text style="fill: #000000; font-size: 0.8 cm; length: 1.5 cm; font-family: sans; font-style: normal; font-weight: normal" x="12.1713" y="3.84">socio</text>
  <polyline style="fill: none; fill-opacity:0; stroke-width: 0.1; stroke: #000000" points="6.35,3.3 8.47486,3.3 8.47486,3.2975 10.3761,3.2975 "/>
  <polyline style="fill: none; fill-opacity:0; stroke-width: 0.1; stroke: #000000" points="9.98791,3.5475 10.4879,3.2975 9.98791,3.0475 "/>
</svg>
