<?xml version="1.0" encoding="UTF-8" standalone="no"?>
<!-- Created by diasvg.py -->
<svg width="18.652cm" height="6.617cm" viewBox="3.736 0.308 22.389 6.924"
 xmlns="http://www.w3.org/2000/svg"
 xmlns:xlink="http://www.w3.org/1999/xlink">
<ellipse cx="5.100" cy="1.500" rx="0.300" ry="0.300" fill="#FFFFFF" stroke="none"  /><ellipse cx="5.100" cy="1.500" rx="0.300" ry="0.300" fill="none" stroke="#000000"  stroke-width="0.100" /><line x1="3.900" y1="2.100" x2="6.300" y2="2.100" stroke="#000000" stroke-width="0.100" />
<line x1="5.100" y1="1.800" x2="5.100" y2="3.300" stroke="#000000" stroke-width="0.100" />
<line x1="5.100" y1="3.300" x2="3.900" y2="4.600" stroke="#000000" stroke-width="0.100" />
<line x1="5.100" y1="3.300" x2="6.300" y2="4.600" stroke="#000000" stroke-width="0.100" />
<text x="3.991" y="5.742"  fill="#000000" text-anchor="start" font-size="0.80" font-family="sans" font-style="normal" font-weight="400">
Usuario</text>
<text x="3.736" y="6.542"  fill="#000000" text-anchor="start" font-size="0.80" font-family="sans" font-style="normal" font-weight="400">
anonimo </text>
<ellipse cx="20.900" cy="1.500" rx="0.300" ry="0.300" fill="#FFFFFF" stroke="none"  /><ellipse cx="20.900" cy="1.500" rx="0.300" ry="0.300" fill="none" stroke="#000000"  stroke-width="0.100" /><line x1="19.700" y1="2.100" x2="22.100" y2="2.100" stroke="#000000" stroke-width="0.100" />
<line x1="20.900" y1="1.800" x2="20.900" y2="3.300" stroke="#000000" stroke-width="0.100" />
<line x1="20.900" y1="3.300" x2="19.700" y2="4.600" stroke="#000000" stroke-width="0.100" />
<line x1="20.900" y1="3.300" x2="22.100" y2="4.600" stroke="#000000" stroke-width="0.100" />
<text x="19.411" y="5.742"  fill="#000000" text-anchor="start" font-size="0.80" font-family="sans" font-style="normal" font-weight="400">
Secretario</text>
<polyline fill="none" stroke="#000000" stroke-width="0.100"  points="19.411,3.300 17.327,3.300 17.327,3.298 15.466,3.298 "/>
<polyline fill="none" stroke="#000000" stroke-width="0.100"  points="15.854,3.048 15.354,3.298 15.854,3.548 "/>
<ellipse cx="12.921" cy="3.298" rx="2.321" ry="1.548" fill="#FFFFFF" stroke="none"  /><ellipse cx="12.921" cy="3.298" rx="2.321" ry="1.548" fill="none" stroke="#000000"  stroke-width="0.100" /><text x="11.800" y="3.040"  fill="#000000" text-anchor="start" font-size="0.80" font-family="sans" font-style="normal" font-weight="400">
Alta de </text>
<text x="12.171" y="3.840"  fill="#000000" text-anchor="start" font-size="0.80" font-family="sans" font-style="normal" font-weight="400">
socio</text>
<polyline fill="none" stroke="#000000" stroke-width="0.100"  points="6.350,3.300 8.475,3.300 8.475,3.298 10.376,3.298 "/>
<polyline fill="none" stroke="#000000" stroke-width="0.100"  points="9.988,3.548 10.488,3.298 9.988,3.048 "/>
</svg>