<?xml version="1.0" encoding="UTF-8" standalone="no"?>
<!DOCTYPE svg PUBLIC "-//W3C//DTD SVG 1.0//EN" "http://www.w3.org/TR/2001/PR-SVG-20010719/DTD/svg10.dtd">
<svg width="19cm" height="6cm" viewBox="11 0 19 6">
  <ellipse style="fill: #ffffff" cx="13.25" cy="1.3" rx="0.3" ry="0.3"/>
  <ellipse style="fill: none; fill-opacity:0; stroke-width: 0.1; stroke: #000000" cx="13.25" cy="1.3" rx="0.3" ry="0.3"/>
  <line style="fill: none; fill-opacity:0; stroke-width: 0.1; stroke: #000000" x1="12.05" y1="1.9" x2="14.45" y2="1.9"/>
  <line style="fill: none; fill-opacity:0; stroke-width: 0.1; stroke: #000000" x1="13.25" y1="1.6" x2="13.25" y2="3.1"/>
  <line style="fill: none; fill-opacity:0; stroke-width: 0.1; stroke: #000000" x1="13.25" y1="3.1" x2="12.05" y2="4.4"/>
  <line style="fill: none; fill-opacity:0; stroke-width: 0.1; stroke: #000000" x1="13.25" y1="3.1" x2="14.45" y2="4.4"/>
  <text style="fill: #000000; font-size: 0.8 cm; length: 1.5675 cm; font-family: sans; font-style: normal; font-weight: normal" x="12.4663" y="5.5425">Socio</text>
  <ellipse style="fill: #ffffff" cx="28.9" cy="1.3" rx="0.3" ry="0.3"/>
  <ellipse style="fill: none; fill-opacity:0; stroke-width: 0.1; stroke: #000000" cx="28.9" cy="1.3" rx="0.3" ry="0.3"/>
  <line style="fill: none; fill-opacity:0; stroke-width: 0.1; stroke: #000000" x1="27.7" y1="1.9" x2="30.1" y2="1.9"/>
  <line style="fill: none; fill-opacity:0; stroke-width: 0.1; stroke: #000000" x1="28.9" y1="1.6" x2="28.9" y2="3.1"/>
  <line style="fill: none; fill-opacity:0; stroke-width: 0.1; stroke: #000000" x1="28.9" y1="3.1" x2="27.7" y2="4.4"/>
  <line style="fill: none; fill-opacity:0; stroke-width: 0.1; stroke: #000000" x1="28.9" y1="3.1" x2="30.1" y2="4.4"/>
  <text style="fill: #000000; font-size: 0.8 cm; length: 2.9775 cm; font-family: sans; font-style: normal; font-weight: normal" x="27.4113" y="5.5425">Secretario</text>
  <ellipse style="fill: #ffffff" cx="20.8375" cy="3.09167" rx="2.3875" ry="1.59167"/>
  <ellipse style="fill: none; fill-opacity:0; stroke-width: 0.1; stroke: #000000" cx="20.8375" cy="3.09167" rx="2.3875" ry="1.59167"/>
  <text style="fill: #000000; font-size: 0.8 cm; length: 2.375 cm; font-family: sans; font-style: normal; font-weight: normal" x="19.65" y="2.83417">Baja de </text>
  <text style="fill: #000000; font-size: 0.8 cm; length: 1.5 cm; font-family: sans; font-style: normal; font-weight: normal" x="20.0875" y="3.63417">socio</text>
  <polyline style="fill: none; fill-opacity:0; stroke-width: 0.1; stroke: #000000" points="27.4609,3.1 25.3431,3.1 25.3431,3.09167 23.4489,3.09167 "/>
  <polyline style="fill: none; fill-opacity:0; stroke-width: 0.1; stroke: #000000" points="23.8371,2.84167 23.3371,3.09167 23.8371,3.34167 "/>
  <polyline style="fill: none; fill-opacity:0; stroke-width: 0.1; stroke: #000000" points="14.5,3.1 16.4749,3.1 16.4749,3.09167 18.2261,3.09167 "/>
  <polyline style="fill: none; fill-opacity:0; stroke-width: 0.1; stroke: #000000" points="17.8379,3.34167 18.3379,3.09167 17.8379,2.84167 "/>
</svg>
