<?xml version="1.0" encoding="UTF-8" standalone="no"?>
<!DOCTYPE svg PUBLIC "-//W3C//DTD SVG 1.0//EN" "http://www.w3.org/TR/2001/PR-SVG-20010719/DTD/svg10.dtd">
<svg width="24cm" height="12cm" viewBox="13 -1 24 12">
  <ellipse style="fill: #ffffff" cx="14.4" cy="0.6" rx="0.3" ry="0.3"/>
  <ellipse style="fill: none; fill-opacity:0; stroke-width: 0.1; stroke: #000000" cx="14.4" cy="0.6" rx="0.3" ry="0.3"/>
  <line style="fill: none; fill-opacity:0; stroke-width: 0.1; stroke: #000000" x1="13.2" y1="1.2" x2="15.6" y2="1.2"/>
  <line style="fill: none; fill-opacity:0; stroke-width: 0.1; stroke: #000000" x1="14.4" y1="0.9" x2="14.4" y2="2.4"/>
  <line style="fill: none; fill-opacity:0; stroke-width: 0.1; stroke: #000000" x1="14.4" y1="2.4" x2="13.2" y2="3.7"/>
  <line style="fill: none; fill-opacity:0; stroke-width: 0.1; stroke: #000000" x1="14.4" y1="2.4" x2="15.6" y2="3.7"/>
  <text style="fill: #000000; font-size: 0.8 cm; length: 1.5675 cm; font-family: sans; font-style: normal; font-weight: normal" x="13.6163" y="4.8425">Socio</text>
  <rect style="fill: #ffffff" x="24.6" y="3.35" width="3.475" height="1.8"/>
  <rect style="fill: none; fill-opacity:0; stroke-width: 0.1; stroke: #000000" x="24.6" y="3.35" width="3.475" height="1.8"/>
  <text style="fill: #000000; font-size: 0.8 cm; length: 2.475 cm; font-family: sans; font-style: normal; font-weight: normal" x="25.1" y="4.3925">:sistema</text>
  <line style="fill: none; fill-opacity:0; stroke-width: 0.05; stroke: #000000" x1="25.1" y1="4.5325" x2="27.575" y2="4.5325"/>
  <line style="fill: none; fill-opacity:0; stroke-width: 0.05; stroke-dasharray: 0.4; stroke: #000000" x1="14.4" y1="5.1" x2="14.4" y2="10.05"/>
  <rect style="fill: #ffffff" x="14.05" y="6.1" width="0.7" height="1.85"/>
  <rect style="fill: none; fill-opacity:0; stroke-width: 0.1; stroke: #000000" x="14.05" y="6.1" width="0.7" height="1.85"/>
  <line style="fill: none; fill-opacity:0; stroke-width: 0.12; stroke: #000000" x1="15.2" y1="10.85" x2="13.6" y2="9.25"/>
  <line style="fill: none; fill-opacity:0; stroke-width: 0.12; stroke: #000000" x1="15.2" y1="9.25" x2="13.6" y2="10.85"/>
  <line style="fill: none; fill-opacity:0; stroke-width: 0.05; stroke-dasharray: 0.4; stroke: #000000" x1="26.3375" y1="5.15" x2="26.3375" y2="10"/>
  <rect style="fill: #ffffff" x="25.9875" y="6.15" width="0.7" height="1.75"/>
  <rect style="fill: none; fill-opacity:0; stroke-width: 0.1; stroke: #000000" x="25.9875" y="6.15" width="0.7" height="1.75"/>
  <line style="fill: none; fill-opacity:0; stroke-width: 0.12; stroke: #000000" x1="27.1375" y1="10.8" x2="25.5375" y2="9.2"/>
  <line style="fill: none; fill-opacity:0; stroke-width: 0.12; stroke: #000000" x1="27.1375" y1="9.2" x2="25.5375" y2="10.8"/>
  <line style="fill: none; fill-opacity:0; stroke-width: 0.1; stroke: #000000" x1="25.1375" y1="6.14622" x2="14.75" y2="6.1"/>
  <polygon style="fill: #000000" points="25.1364,6.39622 25.9375,6.14978 25.1386,5.89622 "/>
  <text style="fill: #000000; font-size: 0.8 cm; length: 9.5625 cm; font-family: sans; font-style: normal; font-weight: normal" x="15.5875" y="6.625">AnyadirContacto(datosContacto)</text>
  <line style="fill: none; fill-opacity:0; stroke-width: 0.1; stroke: #000000" x1="26.6875" y1="6.15" x2="36.65" y2="6.15"/>
  <line style="fill: none; fill-opacity:0; stroke-width: 0.1; stroke: #000000" x1="36.65" y1="6.15" x2="36.65" y2="7.3"/>
  <line style="fill: none; fill-opacity:0; stroke-width: 0.1; stroke: #000000" x1="27.5375" y1="7.3" x2="36.65" y2="7.3"/>
  <polygon style="fill: #000000" points="27.5375,7.05 26.7375,7.3 27.5375,7.55 "/>
  <text style="fill: #000000; font-size: 0.8 cm; length: 9.5875 cm; font-family: sans; font-style: normal; font-weight: normal" x="26.875" y="7.225">InsertarContacto(datosContacto)</text>
</svg>
