<?xml version="1.0" encoding="UTF-8" standalone="no"?>
<!DOCTYPE svg PUBLIC "-//W3C//DTD SVG 1.0//EN" "http://www.w3.org/TR/2001/PR-SVG-20010719/DTD/svg10.dtd">
<svg width="27cm" height="12cm" viewBox="12 -1 27 12">
  <ellipse style="fill: #ffffff" cx="13.9138" cy="0.475" rx="0.3" ry="0.3"/>
  <ellipse style="fill: none; fill-opacity:0; stroke-width: 0.1; stroke: #000000" cx="13.9138" cy="0.475" rx="0.3" ry="0.3"/>
  <line style="fill: none; fill-opacity:0; stroke-width: 0.1; stroke: #000000" x1="12.7138" y1="1.075" x2="15.1138" y2="1.075"/>
  <line style="fill: none; fill-opacity:0; stroke-width: 0.1; stroke: #000000" x1="13.9138" y1="0.775" x2="13.9138" y2="2.275"/>
  <line style="fill: none; fill-opacity:0; stroke-width: 0.1; stroke: #000000" x1="13.9138" y1="2.275" x2="12.7138" y2="3.575"/>
  <line style="fill: none; fill-opacity:0; stroke-width: 0.1; stroke: #000000" x1="13.9138" y1="2.275" x2="15.1138" y2="3.575"/>
  <text style="fill: #000000; font-size: 0.8 cm; length: 2.9775 cm; font-family: sans; font-style: normal; font-weight: normal" x="12.4251" y="4.7175">Secretario</text>
  <rect style="fill: #ffffff" x="26.905" y="3.235" width="3.7275" height="1.8"/>
  <rect style="fill: none; fill-opacity:0; stroke-width: 0.1; stroke: #000000" x="26.905" y="3.235" width="3.7275" height="1.8"/>
  <text style="fill: #000000; font-size: 0.8 cm; length: 2.7275 cm; font-family: sans; font-style: normal; font-weight: normal" x="27.405" y="4.2775">:Sistema </text>
  <line style="fill: none; fill-opacity:0; stroke-width: 0.05; stroke: #000000" x1="27.405" y1="4.4175" x2="30.1325" y2="4.4175"/>
  <line style="fill: none; fill-opacity:0; stroke-width: 0.05; stroke-dasharray: 0.4; stroke: #000000" x1="13.9138" y1="4.975" x2="13.9138" y2="10"/>
  <rect style="fill: #ffffff" x="13.5638" y="5.975" width="0.7" height="2.025"/>
  <rect style="fill: none; fill-opacity:0; stroke-width: 0.1; stroke: #000000" x="13.5638" y="5.975" width="0.7" height="2.025"/>
  <line style="fill: none; fill-opacity:0; stroke-width: 0.12; stroke: #000000" x1="14.7138" y1="10.8" x2="13.1138" y2="9.2"/>
  <line style="fill: none; fill-opacity:0; stroke-width: 0.12; stroke: #000000" x1="14.7138" y1="9.2" x2="13.1138" y2="10.8"/>
  <line style="fill: none; fill-opacity:0; stroke-width: 0.05; stroke-dasharray: 0.4; stroke: #000000" x1="28.7687" y1="5.035" x2="28.7687" y2="9.95"/>
  <rect style="fill: #ffffff" x="28.4187" y="6.035" width="0.7" height="2.015"/>
  <rect style="fill: none; fill-opacity:0; stroke-width: 0.1; stroke: #000000" x="28.4187" y="6.035" width="0.7" height="2.015"/>
  <line style="fill: none; fill-opacity:0; stroke-width: 0.12; stroke: #000000" x1="29.5687" y1="10.75" x2="27.9687" y2="9.15"/>
  <line style="fill: none; fill-opacity:0; stroke-width: 0.12; stroke: #000000" x1="29.5687" y1="9.15" x2="27.9687" y2="10.75"/>
  <line style="fill: none; fill-opacity:0; stroke-width: 0.1; stroke: #000000" x1="27.5687" y1="6.0314" x2="14.2638" y2="5.975"/>
  <polygon style="fill: #000000" points="27.5676,6.28139 28.3687,6.03479 27.5698,5.7814 "/>
  <text style="fill: #000000; font-size: 0.8 cm; length: 9.2725 cm; font-family: sans; font-style: normal; font-weight: normal" x="16.705" y="6.505">AnyadirDecision(datosDecision)</text>
  <line style="fill: none; fill-opacity:0; stroke-width: 0.1; stroke: #000000" x1="29.1187" y1="6.035" x2="38.75" y2="6.035"/>
  <line style="fill: none; fill-opacity:0; stroke-width: 0.1; stroke: #000000" x1="38.75" y1="6.035" x2="38.75" y2="7.55"/>
  <line style="fill: none; fill-opacity:0; stroke-width: 0.1; stroke: #000000" x1="29.9687" y1="7.55" x2="38.75" y2="7.55"/>
  <polygon style="fill: #000000" points="29.9687,7.3 29.1687,7.55 29.9687,7.8 "/>
  <text style="fill: #000000; font-size: 0.8 cm; length: 9.2975 cm; font-family: sans; font-style: normal; font-weight: normal" x="29.2856" y="7.2925">InsertarDecision(datosDecision)</text>
</svg>
