<?xml version="1.0" encoding="UTF-8" standalone="no"?>
<!DOCTYPE svg PUBLIC "-//W3C//DTD SVG 1.0//EN" "http://www.w3.org/TR/2001/PR-SVG-20010719/DTD/svg10.dtd">
<svg width="31cm" height="14cm" viewBox="0 1 31 14">
  <ellipse style="fill: #ffffff" cx="5.6225" cy="2.47" rx="0.3" ry="0.3"/>
  <ellipse style="fill: none; fill-opacity:0; stroke-width: 0.1; stroke: #000000" cx="5.6225" cy="2.47" rx="0.3" ry="0.3"/>
  <line style="fill: none; fill-opacity:0; stroke-width: 0.1; stroke: #000000" x1="4.4225" y1="3.07" x2="6.8225" y2="3.07"/>
  <line style="fill: none; fill-opacity:0; stroke-width: 0.1; stroke: #000000" x1="5.6225" y1="2.77" x2="5.6225" y2="4.27"/>
  <line style="fill: none; fill-opacity:0; stroke-width: 0.1; stroke: #000000" x1="5.6225" y1="4.27" x2="4.4225" y2="5.57"/>
  <line style="fill: none; fill-opacity:0; stroke-width: 0.1; stroke: #000000" x1="5.6225" y1="4.27" x2="6.8225" y2="5.57"/>
  <text style="fill: #000000; font-size: 0.8 cm; length: 9.515 cm; font-family: sans; font-style: normal; font-weight: normal" x="0.865" y="6.7125">Administrador de la herramienta</text>
  <line style="fill: none; fill-opacity:0; stroke-width: 0.05; stroke-dasharray: 0.4; stroke: #000000" x1="5.6225" y1="6.97" x2="5.6225" y2="14.05"/>
  <rect style="fill: #ffffff" x="5.2725" y="8.5" width="0.7" height="3.55"/>
  <rect style="fill: none; fill-opacity:0; stroke-width: 0.1; stroke: #000000" x="5.2725" y="8.5" width="0.7" height="3.55"/>
  <line style="fill: none; fill-opacity:0; stroke-width: 0.12; stroke: #000000" x1="6.4225" y1="14.85" x2="4.8225" y2="13.25"/>
  <line style="fill: none; fill-opacity:0; stroke-width: 0.12; stroke: #000000" x1="6.4225" y1="13.25" x2="4.8225" y2="14.85"/>
  <rect style="fill: #ffffff" x="17.365" y="5.02" width="3.7275" height="1.8"/>
  <rect style="fill: none; fill-opacity:0; stroke-width: 0.1; stroke: #000000" x="17.365" y="5.02" width="3.7275" height="1.8"/>
  <text style="fill: #000000; font-size: 0.8 cm; length: 2.7275 cm; font-family: sans; font-style: normal; font-weight: normal" x="17.865" y="6.0625">:Sistema </text>
  <line style="fill: none; fill-opacity:0; stroke-width: 0.05; stroke: #000000" x1="17.865" y1="6.2025" x2="20.5925" y2="6.2025"/>
  <line style="fill: none; fill-opacity:0; stroke-width: 0.05; stroke-dasharray: 0.4; stroke: #000000" x1="19.2287" y1="6.82" x2="19.2287" y2="14.15"/>
  <rect style="fill: #ffffff" x="18.8787" y="8.55" width="0.7" height="3.65"/>
  <rect style="fill: none; fill-opacity:0; stroke-width: 0.1; stroke: #000000" x="18.8787" y="8.55" width="0.7" height="3.65"/>
  <line style="fill: none; fill-opacity:0; stroke-width: 0.12; stroke: #000000" x1="20.0287" y1="14.95" x2="18.4287" y2="13.35"/>
  <line style="fill: none; fill-opacity:0; stroke-width: 0.12; stroke: #000000" x1="20.0287" y1="13.35" x2="18.4287" y2="14.95"/>
  <line style="fill: none; fill-opacity:0; stroke-width: 0.1; stroke: #000000" x1="18.0288" y1="8.54671" x2="5.9725" y2="8.5"/>
  <polygon style="fill: #000000" points="18.0278,8.79671 18.8288,8.54981 18.0297,8.29671 "/>
  <text style="fill: #000000; font-size: 0.8 cm; length: 11.175 cm; font-family: sans; font-style: normal; font-weight: normal" x="6.83812" y="9.025">generarArchivoLog(horaInicio,horaFin)</text>
  <line style="fill: none; fill-opacity:0; stroke-width: 0.1; stroke: #000000" x1="19.5787" y1="8.55" x2="31.25" y2="8.55"/>
  <line style="fill: none; fill-opacity:0; stroke-width: 0.1; stroke: #000000" x1="31.25" y1="8.55" x2="31.25" y2="9.9"/>
  <line style="fill: none; fill-opacity:0; stroke-width: 0.1; stroke: #000000" x1="20.4288" y1="9.9" x2="31.25" y2="9.9"/>
  <polygon style="fill: #000000" points="20.4288,9.65 19.6288,9.9 20.4288,10.15 "/>
  <text style="fill: #000000; font-size: 0.8 cm; length: 11.1625 cm; font-family: sans; font-style: normal; font-weight: normal" x="19.8331" y="9.725">logs:=obtenerLogs(horaInicio,horaFin)</text>
  <line style="fill: none; fill-opacity:0; stroke-width: 0.1; stroke: #000000" x1="19.5787" y1="10.375" x2="25.95" y2="10.375"/>
  <line style="fill: none; fill-opacity:0; stroke-width: 0.1; stroke: #000000" x1="25.95" y1="10.375" x2="25.95" y2="11.65"/>
  <line style="fill: none; fill-opacity:0; stroke-width: 0.1; stroke: #000000" x1="20.4288" y1="11.65" x2="25.95" y2="11.65"/>
  <polygon style="fill: #000000" points="20.4288,11.4 19.6288,11.65 20.4288,11.9 "/>
  <text style="fill: #000000; font-size: 0.8 cm; length: 5.9825 cm; font-family: sans; font-style: normal; font-weight: normal" x="19.7731" y="11.5125">escribirArchivo(logs)</text>
</svg>
