<?xml version="1.0" encoding="UTF-8" standalone="no"?>
<!DOCTYPE svg PUBLIC "-//W3C//DTD SVG 1.0//EN" "http://www.w3.org/TR/2001/PR-SVG-20010719/DTD/svg10.dtd">
<svg width="35cm" height="13cm" viewBox="12 -1 35 13">
  <ellipse style="fill: #ffffff" cx="14.0338" cy="0.69" rx="0.3" ry="0.3"/>
  <ellipse style="fill: none; fill-opacity:0; stroke-width: 0.1; stroke: #000000" cx="14.0338" cy="0.69" rx="0.3" ry="0.3"/>
  <line style="fill: none; fill-opacity:0; stroke-width: 0.1; stroke: #000000" x1="12.8338" y1="1.29" x2="15.2338" y2="1.29"/>
  <line style="fill: none; fill-opacity:0; stroke-width: 0.1; stroke: #000000" x1="14.0338" y1="0.99" x2="14.0338" y2="2.49"/>
  <line style="fill: none; fill-opacity:0; stroke-width: 0.1; stroke: #000000" x1="14.0338" y1="2.49" x2="12.8338" y2="3.79"/>
  <line style="fill: none; fill-opacity:0; stroke-width: 0.1; stroke: #000000" x1="14.0338" y1="2.49" x2="15.2338" y2="3.79"/>
  <text style="fill: #000000; font-size: 0.8 cm; length: 2.6275 cm; font-family: sans; font-style: normal; font-weight: normal" x="12.72" y="4.9325">Tesorero </text>
  <rect style="fill: #ffffff" x="30.25" y="3.35" width="3.475" height="1.8"/>
  <rect style="fill: none; fill-opacity:0; stroke-width: 0.1; stroke: #000000" x="30.25" y="3.35" width="3.475" height="1.8"/>
  <text style="fill: #000000; font-size: 0.8 cm; length: 2.475 cm; font-family: sans; font-style: normal; font-weight: normal" x="30.75" y="4.3925">:sistema</text>
  <line style="fill: none; fill-opacity:0; stroke-width: 0.05; stroke: #000000" x1="30.75" y1="4.5325" x2="33.225" y2="4.5325"/>
  <line style="fill: none; fill-opacity:0; stroke-width: 0.05; stroke-dasharray: 0.4; stroke: #000000" x1="14.0338" y1="5.19" x2="14.0338" y2="11.05"/>
  <rect style="fill: #ffffff" x="13.6838" y="6.19" width="0.7" height="2.81"/>
  <rect style="fill: none; fill-opacity:0; stroke-width: 0.1; stroke: #000000" x="13.6838" y="6.19" width="0.7" height="2.81"/>
  <line style="fill: none; fill-opacity:0; stroke-width: 0.12; stroke: #000000" x1="14.8338" y1="11.85" x2="13.2338" y2="10.25"/>
  <line style="fill: none; fill-opacity:0; stroke-width: 0.12; stroke: #000000" x1="14.8338" y1="10.25" x2="13.2338" y2="11.85"/>
  <line style="fill: none; fill-opacity:0; stroke-width: 0.05; stroke-dasharray: 0.4; stroke: #000000" x1="31.9875" y1="5.15" x2="31.9875" y2="11"/>
  <rect style="fill: #ffffff" x="31.6375" y="6.15" width="0.7" height="2.85"/>
  <rect style="fill: none; fill-opacity:0; stroke-width: 0.1; stroke: #000000" x="31.6375" y="6.15" width="0.7" height="2.85"/>
  <line style="fill: none; fill-opacity:0; stroke-width: 0.12; stroke: #000000" x1="32.7875" y1="11.8" x2="31.1875" y2="10.2"/>
  <line style="fill: none; fill-opacity:0; stroke-width: 0.12; stroke: #000000" x1="32.7875" y1="10.2" x2="31.1875" y2="11.8"/>
  <line style="fill: none; fill-opacity:0; stroke-width: 0.1; stroke: #000000" x1="30.7875" y1="6.15197" x2="14.3838" y2="6.19"/>
  <polygon style="fill: #000000" points="30.7881,6.40197 31.5875,6.15012 30.7869,5.90197 "/>
  <text style="fill: #000000; font-size: 0.8 cm; length: 15.305 cm; font-family: sans; font-style: normal; font-weight: normal" x="15.3581" y="6.67">ObtenerListado(colMostrar,colOrdenar,restricciones)</text>
  <line style="fill: none; fill-opacity:0; stroke-width: 0.1; stroke: #000000" x1="32.3375" y1="6.15" x2="46.7" y2="6.15"/>
  <line style="fill: none; fill-opacity:0; stroke-width: 0.1; stroke: #000000" x1="46.7" y1="6.15" x2="46.7" y2="7.35"/>
  <line style="fill: none; fill-opacity:0; stroke-width: 0.1; stroke: #000000" x1="33.1875" y1="7.35" x2="46.7" y2="7.35"/>
  <polygon style="fill: #000000" points="33.1875,7.1 32.3875,7.35 33.1875,7.6 "/>
  <text style="fill: #000000; font-size: 0.8 cm; length: 14.1125 cm; font-family: sans; font-style: normal; font-weight: normal" x="32.4625" y="7.25">listado:=OptenerDatos(colMostrar,restricciones)</text>
  <line style="fill: none; fill-opacity:0; stroke-width: 0.1; stroke: #000000" x1="32.3375" y1="7.575" x2="45.5" y2="7.575"/>
  <line style="fill: none; fill-opacity:0; stroke-width: 0.1; stroke: #000000" x1="45.5" y1="7.575" x2="45.5" y2="8.65"/>
  <line style="fill: none; fill-opacity:0; stroke-width: 0.1; stroke: #000000" x1="33.1875" y1="8.65" x2="45.5" y2="8.65"/>
  <polygon style="fill: #000000" points="33.1875,8.4 32.3875,8.65 33.1875,8.9 "/>
  <text style="fill: #000000; font-size: 0.8 cm; length: 12.8125 cm; font-family: sans; font-style: normal; font-weight: normal" x="32.5125" y="8.6125">listado:=ordenarListado(listado,colOrdenar)</text>
  <line style="fill: none; fill-opacity:0; stroke-width: 0.1; stroke-dasharray: 0.4; stroke: #000000" x1="15.2338" y1="9" x2="31.6375" y2="9"/>
  <polygon style="fill: #000000" points="15.2338,8.75 14.4338,9 15.2338,9.25 "/>
  <text style="fill: #000000; font-size: 0.8 cm; length: 1.94 cm; font-family: sans; font-style: normal; font-weight: normal" x="22.0406" y="9.5">listado</text>
</svg>
