<?xml version="1.0" encoding="UTF-8" standalone="no"?>
<!DOCTYPE svg PUBLIC "-//W3C//DTD SVG 1.0//EN" "http://www.w3.org/TR/2001/PR-SVG-20010719/DTD/svg10.dtd">
<svg width="29cm" height="13cm" viewBox="0 0 29 13">
  <ellipse style="fill: #ffffff" cx="5.0675" cy="1.82" rx="0.3" ry="0.3"/>
  <ellipse style="fill: none; fill-opacity:0; stroke-width: 0.1; stroke: #000000" cx="5.0675" cy="1.82" rx="0.3" ry="0.3"/>
  <line style="fill: none; fill-opacity:0; stroke-width: 0.1; stroke: #000000" x1="3.8675" y1="2.42" x2="6.2675" y2="2.42"/>
  <line style="fill: none; fill-opacity:0; stroke-width: 0.1; stroke: #000000" x1="5.0675" y1="2.12" x2="5.0675" y2="3.62"/>
  <line style="fill: none; fill-opacity:0; stroke-width: 0.1; stroke: #000000" x1="5.0675" y1="3.62" x2="3.8675" y2="4.92"/>
  <line style="fill: none; fill-opacity:0; stroke-width: 0.1; stroke: #000000" x1="5.0675" y1="3.62" x2="6.2675" y2="4.92"/>
  <text style="fill: #000000; font-size: 0.8 cm; length: 8.985 cm; font-family: sans; font-style: normal; font-weight: normal" x="0.575" y="6.0625">Administrador de la asociación</text>
  <rect style="fill: #ffffff" x="13.925" y="4.52" width="3.475" height="1.8"/>
  <rect style="fill: none; fill-opacity:0; stroke-width: 0.1; stroke: #000000" x="13.925" y="4.52" width="3.475" height="1.8"/>
  <text style="fill: #000000; font-size: 0.8 cm; length: 2.475 cm; font-family: sans; font-style: normal; font-weight: normal" x="14.425" y="5.5625">:sistema</text>
  <line style="fill: none; fill-opacity:0; stroke-width: 0.05; stroke: #000000" x1="14.425" y1="5.7025" x2="16.9" y2="5.7025"/>
  <line style="fill: none; fill-opacity:0; stroke-width: 0.05; stroke-dasharray: 0.4; stroke: #000000" x1="5.0675" y1="6.32" x2="5.0675" y2="12.15"/>
  <rect style="fill: #ffffff" x="4.7175" y="7.775" width="0.7" height="2.325"/>
  <rect style="fill: none; fill-opacity:0; stroke-width: 0.1; stroke: #000000" x="4.7175" y="7.775" width="0.7" height="2.325"/>
  <line style="fill: none; fill-opacity:0; stroke-width: 0.12; stroke: #000000" x1="5.8675" y1="12.95" x2="4.2675" y2="11.35"/>
  <line style="fill: none; fill-opacity:0; stroke-width: 0.12; stroke: #000000" x1="5.8675" y1="11.35" x2="4.2675" y2="12.95"/>
  <line style="fill: none; fill-opacity:0; stroke-width: 0.05; stroke-dasharray: 0.4; stroke: #000000" x1="15.6625" y1="6.32" x2="15.6625" y2="12.05"/>
  <rect style="fill: #ffffff" x="15.3125" y="7.77" width="0.7" height="2.28"/>
  <rect style="fill: none; fill-opacity:0; stroke-width: 0.1; stroke: #000000" x="15.3125" y="7.77" width="0.7" height="2.28"/>
  <line style="fill: none; fill-opacity:0; stroke-width: 0.12; stroke: #000000" x1="16.4625" y1="12.85" x2="14.8625" y2="11.25"/>
  <line style="fill: none; fill-opacity:0; stroke-width: 0.12; stroke: #000000" x1="16.4625" y1="11.25" x2="14.8625" y2="12.85"/>
  <line style="fill: none; fill-opacity:0; stroke-width: 0.1; stroke: #000000" x1="14.4625" y1="7.77043" x2="5.4175" y2="7.775"/>
  <polygon style="fill: #000000" points="14.4626,8.02043 15.2625,7.77003 14.4624,7.52043 "/>
  <text style="fill: #000000; font-size: 0.8 cm; length: 7.8775 cm; font-family: sans; font-style: normal; font-weight: normal" x="6.42625" y="8.2725">DesactivarModulo(modulo)</text>
  <line style="fill: none; fill-opacity:0; stroke-width: 0.1; stroke: #000000" x1="16.0125" y1="7.77" x2="28.5" y2="7.77"/>
  <line style="fill: none; fill-opacity:0; stroke-width: 0.1; stroke: #000000" x1="28.5" y1="7.77" x2="28.5" y2="9.15"/>
  <line style="fill: none; fill-opacity:0; stroke-width: 0.1; stroke: #000000" x1="16.8625" y1="9.15" x2="28.5" y2="9.15"/>
  <polygon style="fill: #000000" points="16.8625,8.9 16.0625,9.15 16.8625,9.4 "/>
  <text style="fill: #000000; font-size: 0.8 cm; length: 12.0725 cm; font-family: sans; font-style: normal; font-weight: normal" x="16.2201" y="8.96">ExcluirModuloActivos(modulo,asociacion)</text>
</svg>
