<?xml version="1.0" encoding="UTF-8" standalone="no"?>
<!DOCTYPE svg PUBLIC "-//W3C//DTD SVG 1.0//EN" "http://www.w3.org/TR/2001/PR-SVG-20010719/DTD/svg10.dtd">
<svg width="29cm" height="12cm" viewBox="12 -1 29 12">
  <ellipse style="fill: #ffffff" cx="14.0237" cy="0.64" rx="0.3" ry="0.3"/>
  <ellipse style="fill: none; fill-opacity:0; stroke-width: 0.1; stroke: #000000" cx="14.0237" cy="0.64" rx="0.3" ry="0.3"/>
  <line style="fill: none; fill-opacity:0; stroke-width: 0.1; stroke: #000000" x1="12.8237" y1="1.24" x2="15.2237" y2="1.24"/>
  <line style="fill: none; fill-opacity:0; stroke-width: 0.1; stroke: #000000" x1="14.0237" y1="0.94" x2="14.0237" y2="2.44"/>
  <line style="fill: none; fill-opacity:0; stroke-width: 0.1; stroke: #000000" x1="14.0237" y1="2.44" x2="12.8237" y2="3.74"/>
  <line style="fill: none; fill-opacity:0; stroke-width: 0.1; stroke: #000000" x1="14.0237" y1="2.44" x2="15.2237" y2="3.74"/>
  <text style="fill: #000000; font-size: 0.8 cm; length: 2.6275 cm; font-family: sans; font-style: normal; font-weight: normal" x="12.7099" y="4.8825">Tesorero </text>
  <rect style="fill: #ffffff" x="27.21" y="3.34" width="3.475" height="1.8"/>
  <rect style="fill: none; fill-opacity:0; stroke-width: 0.1; stroke: #000000" x="27.21" y="3.34" width="3.475" height="1.8"/>
  <text style="fill: #000000; font-size: 0.8 cm; length: 2.475 cm; font-family: sans; font-style: normal; font-weight: normal" x="27.71" y="4.3825">:sistema</text>
  <line style="fill: none; fill-opacity:0; stroke-width: 0.05; stroke: #000000" x1="27.71" y1="4.5225" x2="30.185" y2="4.5225"/>
  <line style="fill: none; fill-opacity:0; stroke-width: 0.05; stroke-dasharray: 0.4; stroke: #000000" x1="14.0237" y1="5.14" x2="14.0237" y2="10"/>
  <rect style="fill: #ffffff" x="13.6737" y="6.14" width="0.7" height="1.91"/>
  <rect style="fill: none; fill-opacity:0; stroke-width: 0.1; stroke: #000000" x="13.6737" y="6.14" width="0.7" height="1.91"/>
  <line style="fill: none; fill-opacity:0; stroke-width: 0.12; stroke: #000000" x1="14.8237" y1="10.8" x2="13.2237" y2="9.2"/>
  <line style="fill: none; fill-opacity:0; stroke-width: 0.12; stroke: #000000" x1="14.8237" y1="9.2" x2="13.2237" y2="10.8"/>
  <line style="fill: none; fill-opacity:0; stroke-width: 0.05; stroke-dasharray: 0.4; stroke: #000000" x1="28.9475" y1="5.14" x2="28.9475" y2="10"/>
  <rect style="fill: #ffffff" x="28.5975" y="6.14" width="0.7" height="1.81"/>
  <rect style="fill: none; fill-opacity:0; stroke-width: 0.1; stroke: #000000" x="28.5975" y="6.14" width="0.7" height="1.81"/>
  <line style="fill: none; fill-opacity:0; stroke-width: 0.12; stroke: #000000" x1="29.7475" y1="10.8" x2="28.1475" y2="9.2"/>
  <line style="fill: none; fill-opacity:0; stroke-width: 0.12; stroke: #000000" x1="29.7475" y1="9.2" x2="28.1475" y2="10.8"/>
  <line style="fill: none; fill-opacity:0; stroke-width: 0.1; stroke: #000000" x1="27.7475" y1="6.14" x2="14.3737" y2="6.14"/>
  <polygon style="fill: #000000" points="27.7475,6.39 28.5475,6.14 27.7475,5.89 "/>
  <text style="fill: #000000; font-size: 0.8 cm; length: 10.7425 cm; font-family: sans; font-style: normal; font-weight: normal" x="16.1144" y="6.64">ModificarGasto(idGasto,nuevoGasto)</text>
  <line style="fill: none; fill-opacity:0; stroke-width: 0.1; stroke: #000000" x1="29.2975" y1="6.14" x2="40.7" y2="6.14"/>
  <line style="fill: none; fill-opacity:0; stroke-width: 0.1; stroke: #000000" x1="40.7" y1="6.14" x2="40.7" y2="7.4"/>
  <line style="fill: none; fill-opacity:0; stroke-width: 0.1; stroke: #000000" x1="30.1475" y1="7.4" x2="40.7" y2="7.4"/>
  <polygon style="fill: #000000" points="30.1475,7.15 29.3475,7.4 30.1475,7.65 "/>
  <text style="fill: #000000; font-size: 0.8 cm; length: 10.955 cm; font-family: sans; font-style: normal; font-weight: normal" x="29.5213" y="7.27">ActualizarGasto(idGasto,nuevoGasto)</text>
</svg>
