<?xml version="1.0" encoding="UTF-8" standalone="no"?>
<!DOCTYPE svg PUBLIC "-//W3C//DTD SVG 1.0//EN" "http://www.w3.org/TR/2001/PR-SVG-20010719/DTD/svg10.dtd">
<svg width="34cm" height="13cm" viewBox="13 -1 34 13">
  <ellipse style="fill: #ffffff" cx="14.4" cy="0.6" rx="0.3" ry="0.3"/>
  <ellipse style="fill: none; fill-opacity:0; stroke-width: 0.1; stroke: #000000" cx="14.4" cy="0.6" rx="0.3" ry="0.3"/>
  <line style="fill: none; fill-opacity:0; stroke-width: 0.1; stroke: #000000" x1="13.2" y1="1.2" x2="15.6" y2="1.2"/>
  <line style="fill: none; fill-opacity:0; stroke-width: 0.1; stroke: #000000" x1="14.4" y1="0.9" x2="14.4" y2="2.4"/>
  <line style="fill: none; fill-opacity:0; stroke-width: 0.1; stroke: #000000" x1="14.4" y1="2.4" x2="13.2" y2="3.7"/>
  <line style="fill: none; fill-opacity:0; stroke-width: 0.1; stroke: #000000" x1="14.4" y1="2.4" x2="15.6" y2="3.7"/>
  <text style="fill: #000000; font-size: 0.8 cm; length: 1.5675 cm; font-family: sans; font-style: normal; font-weight: normal" x="13.6163" y="4.8425">Socio</text>
  <rect style="fill: #ffffff" x="30.8" y="3.35" width="3.475" height="1.8"/>
  <rect style="fill: none; fill-opacity:0; stroke-width: 0.1; stroke: #000000" x="30.8" y="3.35" width="3.475" height="1.8"/>
  <text style="fill: #000000; font-size: 0.8 cm; length: 2.475 cm; font-family: sans; font-style: normal; font-weight: normal" x="31.3" y="4.3925">:sistema</text>
  <line style="fill: none; fill-opacity:0; stroke-width: 0.05; stroke: #000000" x1="31.3" y1="4.5325" x2="33.775" y2="4.5325"/>
  <line style="fill: none; fill-opacity:0; stroke-width: 0.05; stroke-dasharray: 0.4; stroke: #000000" x1="14.4" y1="5.1" x2="14.4" y2="11"/>
  <rect style="fill: #ffffff" x="14.05" y="6.1" width="0.7" height="2.8"/>
  <rect style="fill: none; fill-opacity:0; stroke-width: 0.1; stroke: #000000" x="14.05" y="6.1" width="0.7" height="2.8"/>
  <line style="fill: none; fill-opacity:0; stroke-width: 0.12; stroke: #000000" x1="15.2" y1="11.8" x2="13.6" y2="10.2"/>
  <line style="fill: none; fill-opacity:0; stroke-width: 0.12; stroke: #000000" x1="15.2" y1="10.2" x2="13.6" y2="11.8"/>
  <line style="fill: none; fill-opacity:0; stroke-width: 0.05; stroke-dasharray: 0.4; stroke: #000000" x1="32.5375" y1="5.15" x2="32.5375" y2="10.95"/>
  <rect style="fill: #ffffff" x="32.1875" y="6.15" width="0.7" height="2.8"/>
  <rect style="fill: none; fill-opacity:0; stroke-width: 0.1; stroke: #000000" x="32.1875" y="6.15" width="0.7" height="2.8"/>
  <line style="fill: none; fill-opacity:0; stroke-width: 0.12; stroke: #000000" x1="33.3375" y1="11.75" x2="31.7375" y2="10.15"/>
  <line style="fill: none; fill-opacity:0; stroke-width: 0.12; stroke: #000000" x1="33.3375" y1="10.15" x2="31.7375" y2="11.75"/>
  <line style="fill: none; fill-opacity:0; stroke-width: 0.1; stroke: #000000" x1="31.3375" y1="6.14756" x2="14.75" y2="6.1"/>
  <polygon style="fill: #000000" points="31.3368,6.39756 32.1375,6.14986 31.3382,5.89756 "/>
  <text style="fill: #000000; font-size: 0.8 cm; length: 15.365 cm; font-family: sans; font-style: normal; font-weight: normal" x="15.7862" y="6.625">ListarContactos(colMostrar,colOrdenar,restricciones)</text>
  <line style="fill: none; fill-opacity:0; stroke-width: 0.1; stroke: #000000" x1="32.8875" y1="6.15" x2="46.85" y2="6.15"/>
  <line style="fill: none; fill-opacity:0; stroke-width: 0.1; stroke: #000000" x1="46.85" y1="6.15" x2="46.85" y2="7.2"/>
  <line style="fill: none; fill-opacity:0; stroke-width: 0.1; stroke: #000000" x1="33.7375" y1="7.2" x2="46.85" y2="7.2"/>
  <polygon style="fill: #000000" points="33.7375,6.95 32.9375,7.2 33.7375,7.45 "/>
  <text style="fill: #000000; font-size: 0.8 cm; length: 13.695 cm; font-family: sans; font-style: normal; font-weight: normal" x="33.0212" y="7.175">listado:=obtenerLista(colMostrar,restricciones)</text>
  <line style="fill: none; fill-opacity:0; stroke-width: 0.1; stroke: #000000" x1="32.8875" y1="7.55" x2="46.1" y2="7.55"/>
  <line style="fill: none; fill-opacity:0; stroke-width: 0.1; stroke: #000000" x1="46.1" y1="7.55" x2="46.1" y2="8.6"/>
  <line style="fill: none; fill-opacity:0; stroke-width: 0.1; stroke: #000000" x1="33.7375" y1="8.6" x2="46.1" y2="8.6"/>
  <polygon style="fill: #000000" points="33.7375,8.35 32.9375,8.6 33.7375,8.85 "/>
  <text style="fill: #000000; font-size: 0.8 cm; length: 12.8125 cm; font-family: sans; font-style: normal; font-weight: normal" x="33.0874" y="8.575">listado:=ordenarListado(listado,colOrdenar)</text>
  <line style="fill: none; fill-opacity:0; stroke-width: 0.1; stroke-dasharray: 0.4; stroke: #000000" x1="15.6" y1="8.90244" x2="32.1875" y2="8.95"/>
  <polygon style="fill: #000000" points="15.6007,8.65244 14.8,8.90014 15.5993,9.15244 "/>
  <text style="fill: #000000; font-size: 0.8 cm; length: 1.94 cm; font-family: sans; font-style: normal; font-weight: normal" x="22.4987" y="9.425">listado</text>
</svg>
