<?xml version="1.0" encoding="UTF-8" standalone="no"?>
<!DOCTYPE svg PUBLIC "-//W3C//DTD SVG 1.0//EN" "http://www.w3.org/TR/2001/PR-SVG-20010719/DTD/svg10.dtd">
<svg width="18cm" height="12cm" viewBox="12 -1 18 12">
  <ellipse style="fill: #ffffff" cx="14.0838" cy="0.56" rx="0.3" ry="0.3"/>
  <ellipse style="fill: none; fill-opacity:0; stroke-width: 0.1; stroke: #000000" cx="14.0838" cy="0.56" rx="0.3" ry="0.3"/>
  <line style="fill: none; fill-opacity:0; stroke-width: 0.1; stroke: #000000" x1="12.8838" y1="1.16" x2="15.2838" y2="1.16"/>
  <line style="fill: none; fill-opacity:0; stroke-width: 0.1; stroke: #000000" x1="14.0838" y1="0.86" x2="14.0838" y2="2.36"/>
  <line style="fill: none; fill-opacity:0; stroke-width: 0.1; stroke: #000000" x1="14.0838" y1="2.36" x2="12.8838" y2="3.66"/>
  <line style="fill: none; fill-opacity:0; stroke-width: 0.1; stroke: #000000" x1="14.0838" y1="2.36" x2="15.2838" y2="3.66"/>
  <text style="fill: #000000; font-size: 0.8 cm; length: 2.6275 cm; font-family: sans; font-style: normal; font-weight: normal" x="12.77" y="4.8025">Tesorero </text>
  <rect style="fill: #ffffff" x="21.72" y="3.31" width="3.475" height="1.8"/>
  <rect style="fill: none; fill-opacity:0; stroke-width: 0.1; stroke: #000000" x="21.72" y="3.31" width="3.475" height="1.8"/>
  <text style="fill: #000000; font-size: 0.8 cm; length: 2.475 cm; font-family: sans; font-style: normal; font-weight: normal" x="22.22" y="4.3525">:sistema</text>
  <line style="fill: none; fill-opacity:0; stroke-width: 0.05; stroke: #000000" x1="22.22" y1="4.4925" x2="24.695" y2="4.4925"/>
  <line style="fill: none; fill-opacity:0; stroke-width: 0.05; stroke-dasharray: 0.4; stroke: #000000" x1="14.0838" y1="5.06" x2="14.0838" y2="10.05"/>
  <rect style="fill: #ffffff" x="13.7338" y="6.06" width="0.7" height="1.84"/>
  <rect style="fill: none; fill-opacity:0; stroke-width: 0.1; stroke: #000000" x="13.7338" y="6.06" width="0.7" height="1.84"/>
  <line style="fill: none; fill-opacity:0; stroke-width: 0.12; stroke: #000000" x1="14.8838" y1="10.85" x2="13.2838" y2="9.25"/>
  <line style="fill: none; fill-opacity:0; stroke-width: 0.12; stroke: #000000" x1="14.8838" y1="9.25" x2="13.2838" y2="10.85"/>
  <line style="fill: none; fill-opacity:0; stroke-width: 0.05; stroke-dasharray: 0.4; stroke: #000000" x1="23.4575" y1="5.11" x2="23.4575" y2="10"/>
  <rect style="fill: #ffffff" x="23.1075" y="6.11" width="0.7" height="1.89"/>
  <rect style="fill: none; fill-opacity:0; stroke-width: 0.1; stroke: #000000" x="23.1075" y="6.11" width="0.7" height="1.89"/>
  <line style="fill: none; fill-opacity:0; stroke-width: 0.12; stroke: #000000" x1="24.2575" y1="10.8" x2="22.6575" y2="9.2"/>
  <line style="fill: none; fill-opacity:0; stroke-width: 0.12; stroke: #000000" x1="24.2575" y1="9.2" x2="22.6575" y2="10.8"/>
  <line style="fill: none; fill-opacity:0; stroke-width: 0.1; stroke: #000000" x1="22.2575" y1="6.1051" x2="14.4338" y2="6.06"/>
  <polygon style="fill: #000000" points="22.2561,6.3551 23.0575,6.10971 22.259,5.8551 "/>
  <text style="fill: #000000; font-size: 0.8 cm; length: 6.7725 cm; font-family: sans; font-style: normal; font-weight: normal" x="15.3844" y="6.585">EliminarGasto(idGasto)</text>
  <line style="fill: none; fill-opacity:0; stroke-width: 0.1; stroke: #000000" x1="23.8075" y1="6.11" x2="30.5" y2="6.11"/>
  <line style="fill: none; fill-opacity:0; stroke-width: 0.1; stroke: #000000" x1="30.5" y1="6.11" x2="30.5" y2="7.5"/>
  <line style="fill: none; fill-opacity:0; stroke-width: 0.1; stroke: #000000" x1="24.6575" y1="7.5" x2="30.5" y2="7.5"/>
  <polygon style="fill: #000000" points="24.6575,7.25 23.8575,7.5 24.6575,7.75 "/>
  <text style="fill: #000000; font-size: 0.8 cm; length: 6.2075 cm; font-family: sans; font-style: normal; font-weight: normal" x="24.05" y="7.305">BorrarGasto(idGasto)</text>
</svg>
