<?xml version="1.0" encoding="UTF-8" standalone="no"?>
<!DOCTYPE svg PUBLIC "-//W3C//DTD SVG 1.0//EN" "http://www.w3.org/TR/2001/PR-SVG-20010719/DTD/svg10.dtd">
<svg width="32cm" height="17cm" viewBox="8 -1 32 17">
  <ellipse style="fill: #ffffff" cx="10.6" cy="0.495" rx="0.3" ry="0.3"/>
  <ellipse style="fill: none; fill-opacity:0; stroke-width: 0.1; stroke: #000000" cx="10.6" cy="0.495" rx="0.3" ry="0.3"/>
  <line style="fill: none; fill-opacity:0; stroke-width: 0.1; stroke: #000000" x1="9.4" y1="1.095" x2="11.8" y2="1.095"/>
  <line style="fill: none; fill-opacity:0; stroke-width: 0.1; stroke: #000000" x1="10.6" y1="0.795" x2="10.6" y2="2.295"/>
  <line style="fill: none; fill-opacity:0; stroke-width: 0.1; stroke: #000000" x1="10.6" y1="2.295" x2="9.4" y2="3.595"/>
  <line style="fill: none; fill-opacity:0; stroke-width: 0.1; stroke: #000000" x1="10.6" y1="2.295" x2="11.8" y2="3.595"/>
  <text style="fill: #000000; font-size: 0.8 cm; length: 5.13 cm; font-family: sans; font-style: normal; font-weight: normal" x="8.035" y="4.7375">Usuario anónimo </text>
  <ellipse style="fill: #ffffff" cx="34.9262" cy="0.495" rx="0.3" ry="0.3"/>
  <ellipse style="fill: none; fill-opacity:0; stroke-width: 0.1; stroke: #000000" cx="34.9262" cy="0.495" rx="0.3" ry="0.3"/>
  <line style="fill: none; fill-opacity:0; stroke-width: 0.1; stroke: #000000" x1="33.7262" y1="1.095" x2="36.1262" y2="1.095"/>
  <line style="fill: none; fill-opacity:0; stroke-width: 0.1; stroke: #000000" x1="34.9262" y1="0.795" x2="34.9262" y2="2.295"/>
  <line style="fill: none; fill-opacity:0; stroke-width: 0.1; stroke: #000000" x1="34.9262" y1="2.295" x2="33.7262" y2="3.595"/>
  <line style="fill: none; fill-opacity:0; stroke-width: 0.1; stroke: #000000" x1="34.9262" y1="2.295" x2="36.1262" y2="3.595"/>
  <text style="fill: #000000; font-size: 0.8 cm; length: 9.5825 cm; font-family: sans; font-style: normal; font-weight: normal" x="30.135" y="4.7375">Administrador de la Herramienta</text>
  <rect style="fill: #ffffff" x="20.25" y="2.95" width="3.475" height="1.8"/>
  <rect style="fill: none; fill-opacity:0; stroke-width: 0.1; stroke: #000000" x="20.25" y="2.95" width="3.475" height="1.8"/>
  <text style="fill: #000000; font-size: 0.8 cm; length: 2.475 cm; font-family: sans; font-style: normal; font-weight: normal" x="20.75" y="3.9925">:sistema</text>
  <line style="fill: none; fill-opacity:0; stroke-width: 0.05; stroke: #000000" x1="20.75" y1="4.1325" x2="23.225" y2="4.1325"/>
  <line style="fill: none; fill-opacity:0; stroke-width: 0.05; stroke-dasharray: 0.4; stroke: #000000" x1="10.6" y1="4.995" x2="10.6" y2="15.1"/>
  <rect style="fill: #ffffff" x="10.25" y="6.55" width="0.7" height="1.45"/>
  <rect style="fill: none; fill-opacity:0; stroke-width: 0.1; stroke: #000000" x="10.25" y="6.55" width="0.7" height="1.45"/>
  <line style="fill: none; fill-opacity:0; stroke-width: 0.12; stroke: #000000" x1="11.4" y1="15.9" x2="9.8" y2="14.3"/>
  <line style="fill: none; fill-opacity:0; stroke-width: 0.12; stroke: #000000" x1="11.4" y1="14.3" x2="9.8" y2="15.9"/>
  <line style="fill: none; fill-opacity:0; stroke-width: 0.05; stroke-dasharray: 0.4; stroke: #000000" x1="21.9875" y1="4.75" x2="21.9875" y2="15"/>
  <rect style="fill: #ffffff" x="21.6375" y="6.5" width="0.7" height="6.95"/>
  <rect style="fill: none; fill-opacity:0; stroke-width: 0.1; stroke: #000000" x="21.6375" y="6.5" width="0.7" height="6.95"/>
  <line style="fill: none; fill-opacity:0; stroke-width: 0.12; stroke: #000000" x1="22.7875" y1="15.8" x2="21.1875" y2="14.2"/>
  <line style="fill: none; fill-opacity:0; stroke-width: 0.12; stroke: #000000" x1="22.7875" y1="14.2" x2="21.1875" y2="15.8"/>
  <line style="fill: none; fill-opacity:0; stroke-width: 0.05; stroke-dasharray: 0.4; stroke: #000000" x1="34.9262" y1="4.995" x2="34.9262" y2="15"/>
  <rect style="fill: #ffffff" x="34.5762" y="7.05" width="0.7" height="2.5"/>
  <rect style="fill: none; fill-opacity:0; stroke-width: 0.1; stroke: #000000" x="34.5762" y="7.05" width="0.7" height="2.5"/>
  <line style="fill: none; fill-opacity:0; stroke-width: 0.12; stroke: #000000" x1="35.7262" y1="15.8" x2="34.1262" y2="14.2"/>
  <line style="fill: none; fill-opacity:0; stroke-width: 0.12; stroke: #000000" x1="35.7262" y1="14.2" x2="34.1262" y2="15.8"/>
  <line style="fill: none; fill-opacity:0; stroke-width: 0.1; stroke: #000000" x1="20.7875" y1="6.50398" x2="10.95" y2="6.55"/>
  <polygon style="fill: #000000" points="20.7887,6.75397 21.5875,6.50023 20.7863,6.25398 "/>
  <text style="fill: #000000; font-size: 0.8 cm; length: 8.6825 cm; font-family: sans; font-style: normal; font-weight: normal" x="11.9525" y="7.025">SolicitarAlta(datosAsociacion)</text>
  <line style="fill: none; fill-opacity:0; stroke-width: 0.1; stroke: #000000" x1="33.7262" y1="7.05" x2="22.4" y2="7.05"/>
  <polygon style="fill: #000000" points="33.7262,7.3 34.5262,7.05 33.7262,6.8 "/>
  <text style="fill: #000000; font-size: 0.8 cm; length: 8.395 cm; font-family: sans; font-style: normal; font-weight: normal" x="24.2906" y="7.55">notificarSolicitud(idSolicitud)</text>
  <line style="fill: none; fill-opacity:0; stroke-width: 0.1; stroke: #000000" x1="23.1875" y1="8.24184" x2="34.5762" y2="8.3"/>
  <polygon style="fill: #000000" points="23.1888,7.99184 22.3875,8.23776 23.1862,8.49184 "/>
  <text style="fill: #000000; font-size: 0.8 cm; length: 8.39 cm; font-family: sans; font-style: normal; font-weight: normal" x="24.2619" y="8.76875">VerificarSolicitud(idSolicitud)</text>
  <line style="fill: none; fill-opacity:0; stroke-width: 0.1; stroke: #000000" x1="22.3375" y1="9.975" x2="32.3" y2="9.975"/>
  <line style="fill: none; fill-opacity:0; stroke-width: 0.1; stroke: #000000" x1="32.3" y1="9.975" x2="32.3" y2="11.55"/>
  <line style="fill: none; fill-opacity:0; stroke-width: 0.1; stroke: #000000" x1="23.1875" y1="11.55" x2="32.3" y2="11.55"/>
  <polygon style="fill: #000000" points="23.1875,11.3 22.3875,11.55 23.1875,11.8 "/>
  <text style="fill: #000000; font-size: 0.8 cm; length: 9.43 cm; font-family: sans; font-style: normal; font-weight: normal" x="22.6038" y="11.2625">AltaAsociacion(datosAsociacion)</text>
</svg>
